<?xml version="1.0" encoding="utf-8"?>
<!-- Generator: Adobe Illustrator 18.0.0, SVG Export Plug-In . SVG Version: 6.00 Build 0)  -->
<!DOCTYPE svg PUBLIC "-//W3C//DTD SVG 1.1//EN" "http://www.w3.org/Graphics/SVG/1.1/DTD/svg11.dtd">
<svg version="1.1" id="Layer_1" xmlns="http://www.w3.org/2000/svg" xmlns:xlink="http://www.w3.org/1999/xlink" x="0px" y="0px"
	 viewBox="0 0 990 480" enable-background="new 0 0 990 480" xml:space="preserve">
<desc  style="-webkit-tap-highlight-color: rgba(0, 0, 0, 0);">Created with Raphaël</desc>
<path display="none" opacity="0.9" fill="#FFFFFF" stroke="#D5D5D5" enable-background="new    " d="M36,57h-7l0,0c-3.9,0-7-3.1-7-7
	l0,0v-7v-7l0,0c0-3.9,3.1-7,7-7l0,0h7h7l0,0c3.9,0,7,3.1,7,7l0,0l7,7l-7,7l0,0c0,3.9-3.1,7-7,7l0,0H36z"/>
<path fill="#CDCCCC" stroke="#FFFFFF" stroke-width="1.1" stroke-linejoin="round" d="M530,343.3c-0.5-0.5-0.7-1-0.7-1.5
	c-0.2-0.5-0.5-1-1-1.3c-0.5-0.2-0.5-0.2-0.7-0.3c0,0-0.5,0.2-1.2,0.5c-0.7,0.2-1.2,0.7-1.3,1.3c0,0.7-0.3,1.3-0.7,2
	c-0.3,1-0.7,1.6-1.2,2.1s-0.7,1.3-1.3,1.8c-0.2,0.7-0.3,1.3-0.2,2c-0.3,0.5-1,1.2-2.1,1.6c0,0-0.2,0-0.5,0.3l-0.7,0.2
	c-1.8,0.5-3.1,1.2-4,1.5c-1,0.5-1.3,0.7-1.3,1.2c-0.3,0.2-0.7,0-1.3-0.5c-0.7-0.3-1.6-0.3-2.3-0.3c-0.8,0.3-1.8,0.3-3,0.2
	c-1,0.2-2,0.2-2.8,0.3c-0.8,0.3-1.5,0.5-2.1,0.8c-0.5,0.5-1.3,0.5-2.6,0.7c-1.2,0.2-2.3,0.5-3.6,1c-1.2,0.5-1.6,0.7-2,0.8
	c0.2,0.2,0.5,0.5,0.7,1.3c0.5,0.7,1.3,1.3,2.5,1.8h1.3c1.3-0.2,2.1,0.3,2.3,0.8c-0.2,0.7-0.5,1.2-1.3,1.3c-0.7,0.3-1.5,0.5-2.6,0.7
	c-0.8,0-1.5,0.2-2.1,0.7c-0.7,0.7-1,1.3-1.3,2.1c-0.2,0.5-0.2,1.3,0.3,2.1c0.3,1,0.5,1.5,0.7,1.6c0,0,0.2,0,0.5,0
	c0.5-0.2,0.8-0.5,1.2-0.7c0.3-0.3,0.2-0.7-0.3-0.7c-0.5-0.3-0.7-0.5-0.8-0.7c0.2-0.5,0.3-0.7,0.5-1.2c0.5-0.3,0.8-0.5,1.3-0.5
	s0.7-0.2,1-0.7c0.2-0.5,0.3-0.5,0.7-0.2c0.3,0.5,0.8,0.7,1.2,0.8s0.7,0.3,1.3,0.3c0.5,0,0.8-0.3,1.5-0.7c0.5-0.5,1-0.7,1.6-0.8
	c0.5-0.2,1.2,0.2,1.3,0.5c0.3,0.5,0,0.7-0.7,0.8c-0.5,0-1,0-1.2,0c-0.3,0-0.5,0-0.7,0.5c-0.3,0.3,0.2,0.5,0.8,0.5
	c0.7,0,1.3-0.2,2.1-0.5c0.7,0,1.2,0,1.5,0c0.5,0,0.7-0.2,1.2-0.5c0.5-0.3,1-0.3,1.6-0.3c0.8,0,1.5,0,2.6,0.2c1,0.2,2,0.2,3,0
	c0.8,0,1.5,0,2.5-0.2c0.8,0,1.5,0,2.1,0c0.5,0,1.2,0,1.8,0.2c0.5,0.2,1.2,0.3,1.8,0.5c0.5,0,1,0,1-0.3c0-0.3,0-0.7,0.5-1.3
	c0.3-0.5,0.3-1.2,0.2-1.5c-0.2-0.5-0.2-1-0.2-1.5s0.3-1,0.8-1.3c0.5-0.5,1.2-1,2-1.3c0.8-0.5,1.5-1,2.1-1.2c0.7-0.3,1.3-0.5,2.1-0.7
	c0.7-0.3,1.2-0.3,1.6-0.5c0.5-0.2,1-0.5,1.5-0.7c0.7-0.5,1.3-0.8,1.5-1c0.2-0.5,0.2-0.8,0.2-1.3c-0.2-0.7-0.3-1.3-0.3-2.1
	s-0.2-1.5-0.3-2.1c-0.2-0.7,0.2-1.2,0.5-1.6c0.7-0.5,1.2-1.2,1.2-1.8c0-0.5,0-0.7,0-0.8l-0.8-0.5c-0.5-0.2-1.3-0.5-2.3-0.5
	c-1-0.2-2.1-0.3-2.8-0.7C531,344.2,530.4,343.7,530,343.3z"/>
<path fill="#CDCCCC" stroke="#FFFFFF" stroke-width="1.1" stroke-linejoin="round" d="M545.8,304.5c0.7,0,1.3,0.2,2.1,0.5
	c0.5,0.3,1,0.5,1.2,0.5l6.1,4.8c0,0-0.2,0.5-0.5,1.6c-0.5,1.3-0.7,2.5-0.8,4c-0.2,1.3-0.2,2.8-0.2,3.6c0,1.2,0,2.1,0,3.3
	c-0.3,0.8-0.5,2-1.2,3.1c-0.5,1.2-1.3,1.8-2.1,2.1c-0.7,0.3-1.3,1.3-1.8,2.6c-0.7,1.3-1.2,2.5-1.5,3.5c-0.5,0.8-0.8,1.8-1.5,3
	c-0.5,0.8-1.2,1.6-1.8,2.3c-0.7,0.5-1.3,1-2,1.3c-0.5,0.5-0.8,0.7-1.6,1c-0.5,0.2-0.8,0.7-1,1.3s-0.5,1.3-0.8,2.1
	c-0.5,0.5-0.7,1-0.7,1l-0.8-0.3c-0.5-0.2-1.3-0.5-2.3-0.5c-1-0.2-2-0.3-2.8-0.8c-1-0.2-1.6-0.7-2.1-1.2s-0.7-1-0.7-1.5
	c-0.3-0.5-0.5-1-1-1.3c-0.5,0-0.5-0.2-0.7-0.2c0-0.2,0.2-0.3,0.3-0.8c0.5-0.5,0.5-1.3,0.7-2.1c0.3-0.7,0.5-1.3,0.5-2.3
	c0-0.7,0.2-1.3,0.5-1.8c0.5-0.2,1.5-0.3,3-0.3l0.8-0.3l0.8-0.5c0.7-1.3,1.3-2.3,1.8-3.1c0.3-0.5,0.7-1.3,1.2-2.1
	c0.3-0.8,0.7-1.5,1.3-2.1c0.7-0.5,1.2-1.3,1.3-2c0.3-0.7,0.5-1.5,0.5-2.5s-0.3-1.6-0.7-2.5c-0.5-0.7-1-1.3-1.3-1.6
	c-0.3-0.5,0-0.7,1-0.8c1.2-0.2,1.3-0.3,1.5-0.8c-0.2-0.5-0.3-0.8-0.7-1.2c-0.3-0.3-0.5-0.8-0.3-1.5s0.2-1.3-0.3-1.8
	c-0.5-0.7-0.2-1.3,1-2.3c1.2-0.7,1.5-1.3,1.6-1.8c0-0.5,0.5-1,1.3-1.2C544.2,304.8,545.2,304.6,545.8,304.5"/>
<path fill="#CDCCCC" stroke="#FFFFFF" stroke-width="1.1" stroke-linejoin="round" d="M525.4,267.3c-1.3-0.8-2.6-1.6-3.5-2.3
	c-1-0.7-1.8-1.3-3-1.6c-1.2-0.5-2-0.5-2.8-0.5c-0.5,0.3-1.3,0.5-2,0.7c-0.7,0.5-1.5,0.5-2.5,0c-0.8-0.3-1.5-0.8-2-1.3
	c-0.5-0.7-0.5-1.5-0.5-2.3c0.2-1-0.5-1.5-1.3-2c-1-0.5-2.1-0.5-3-0.5c-0.8,0-1.5,0-2.3,0.3c-0.8,0.2-1.8,0.5-3.1,1.3
	c-1,0.7-2.1,1.5-3.1,2.1c-1.2,0.5-2,1.2-2.8,1.6c-0.7,0.5-1.3,1-2.1,2c-0.7,0.5-1.3,0.8-2,0.8c-0.5,0.2-1.2,0.5-1.8,1.2
	c-1,0.5-1.5,1-2.1,0.8c-0.7,0-1.3,0-1.5,0.3c-0.5,0-0.5-0.2-0.5-0.7c0-0.8-0.2-1.3-0.5-1.6c-0.2-0.5-0.2-0.5-0.2-0.7
	c-0.2,0-0.7,0-1.3,0c-0.8,0-1.3-0.3-1.5-0.5c-0.2-0.5-0.5-1-0.8-1.3c-0.5-0.5-1.3-0.5-1.8,0s-0.7,1.3-0.7,2.1
	c-0.2,1.2-0.5,1.5-1.3,1.3c-0.8-0.2-1.5,0.2-2.1,0.5c-0.3,0.3-0.3,1-0.3,1.6c0.2,0.8,0,1.3-0.2,1.6c-0.3,0.2-0.3,0.5-0.3,1.2
	c0,0.5,0,1.2,0,2c0.2,0.5,0.3,1.3,0.5,2.1c0,0.5-0.5,1-1.3,1.3c-0.8,0.2-2,0.5-3.1,1c-1,0.5-1.3,0.5-1.5,0.7c0,0.2,0,0.5,0,1.3
	c0,0.7-0.2,1.3-0.3,2c-0.3,0.7-0.7,1.3-0.7,2c-0.2,0.7,0.2,1.3,0.7,1.6c0.5,0.5,1.2,1.3,1.5,2.5c0.5,1.2,0.5,2.1,0.3,3
	c-0.3,0.7-0.5,1.3-1,1.3c-0.5,0.3-1.2,0.7-1.6,1.3c-0.5,0.8-1,1.3-1.3,1.6c0,0.5,0.3,0.7,1,1.2c0.8,0.5,1.2,1,1.2,1.6
	c0.2,0.7,0.2,1.3,0,2c-0.3,0.5-0.3,0.8-0.3,1.3c0.2,0.5,0.3,1.3,0.3,1.6c0.2,0.5,0,1-0.3,1.2c-0.5,0.3-0.5,0.5-0.5,0.5
	s-0.5,0.2-1.3,0.7c-0.7,0.5-1.5,1-2.1,1.5c-0.7,0.5-1.3,0.8-2.1,1.3c-0.7,0-1.3,0-2.1-0.5c-1-0.2-1.6-0.5-2.3-0.7
	c-0.7-0.3-1.6-0.5-3-0.5c-1.5,0-2.6,0-3.6,0c-1,0.2-1.8,0.3-2.8,1c-0.8,0.5-1.6,0.8-2.5,1.3c-0.8,0.5-1.5,0.5-2,0
	c-0.5-0.2-1.3-0.2-2.1,0c-1,0.5-1.8,0.7-2.8,0.7c-0.7,0-1.5,0.2-2.6,0.5c-1,0.3-1.6,0.5-2.3,1c-0.5,0.3-1.2,0.8-1.3,1.5
	c-0.5,0.7-0.5,1.3-0.7,1.5c-0.2,0.5-0.2,0.8-0.5,1.3c-0.2,0.3-0.5,0.5-0.8,0.8c-0.5,0.3-1,0.5-2,1.3c-0.7,0.8-1.2,1.5-1.5,2
	c-0.5,0.3-0.5,0.5-0.7,0.7c0.2,0,0.2,0.3,0,0.7c0,0.3-0.2,0.7-0.3,1.3c-0.5,0.3-0.7,0.8-0.7,1.3c-0.3,0.5-0.3,1,0,1.5
	c0,0.5,0.2,1,0.3,1.5c0,0.5,0.2,0.7,0.2,0.8c0.2-0.2,0.5-0.3,1.2-0.5c0.5-0.5,1.3-0.7,2.1-1c0.7-0.3,1.3-0.7,2-1.2
	c0.5-0.3,1-0.5,1.6-0.2c0.7,0.2,1.3,0.3,2.1,0.5c0.7,0.2,1.3,0.5,2.1,0.5c0.7,0.3,1.3,0.5,2,0.5c0.5,0,1.2,0,1.8,0
	c0.7-0.2,1.3-0.2,2,0.2c0.5,0,1.2,0.3,1.8,0.3c0.8,0.2,1.2,0.5,1.3,0.7c0,0.5,0,0.8-0.2,1.3c-0.2,0.5,0,1.2,0.5,1.3
	c0.5,0.2,0.8,0.5,1.3,0.2c0.5,0,0.8-0.2,1.3-0.2c0.3,0.3,0.5,0.5,1,1s0.7,0.2,0.7-0.5c0.3-0.7,0.7-1.3,1.2-1.3
	c0.3-0.2,1-0.5,1.6-0.5c0.7-0.2,1.3-0.2,2-0.3c0.5,0,1.3-0.2,1.6-0.3c0.7,0,1.3,0.2,2.1,0.2c0.7,0.3,1.3,0.3,1.8,0
	c0.5-0.3,1-0.5,1.5-1c0.7-0.5,1.3-0.5,1.5,0c0.5,0.3,1.3,0.3,2.1,0.3c1,0,1.3,0,1.5,0.3v0.2c0.2,0.2,0.5,0.5,0.7,1
	c0.5,0.5,0.8,0.8,0.8,1.3s0,0.7,0,0.7c0,0.2,0,0.5-0.3,1.2c0,0.7,0.5,1.3,1.2,2.1c0.5,0.7,0.7,1.5,0.5,2.5c-0.5,0.8-0.5,1.5-0.5,2.1
	c0,0.5,0,1.3,0,1.8c0.2,0.7,0.5,1.5,1,2.8c0.5,0.8,1.3,1.3,2,1.3s1.3,0,1.6,0c0.5,0.2,1,0.3,1.5,0.7c0.5,0.5,0.8,1,0.5,1.8
	c-0.3,0.7-0.5,1.6-0.8,2.8c-0.3,1.3-0.5,2.3-0.5,3.1c0.2,0.7,0,1.3-0.5,2c-0.2,0.5-0.2,1.2,0.5,1.8c0.5,0.7,1,1.3,1.5,2.1
	c0.3,0.7,0.7,1.2,0.7,1.6c0.2,0.5,0.2,1.2,0.7,1.6c0.5,0.5,1.2,0.8,2.1,0.8c0.8,0.2,2,0,3.1,0c1-0.3,1.6-0.7,1.8-1.3
	c0.2-0.5,0.5-1,0.5-1.3c0.2-0.5,0.7-0.5,1.3,0c0.5,0.2,1.5,0.2,2.8-0.3c1.3-0.3,2.5-0.8,4-1.3c1.2-0.5,1.8-0.5,2-0.5
	c0.3-0.2,0.8-0.5,2-1c1.3-0.5,2.5-0.7,3.6-0.8c1.3-0.2,2.1-0.5,2.6-0.7c0.5-0.3,1.3-0.5,2.1-0.8c0.8-0.2,1.8-0.3,2.8-0.3
	c1.2,0.2,2.1,0,3-0.2c0.8,0,1.6,0,2.3,0.3c0.8,0.5,1.3,0.5,1.3,0.3c0.2-0.3,0.5-0.5,1.3-1.2c1-0.5,2.1-0.8,4-1.3
	c-0.2,0,0.2-0.2,0.7-0.2l0.5-0.3c1.2-0.5,2-1.2,2.1-1.8c-0.2-0.5,0-1.3,0.2-1.8c0.5-0.7,1-1.3,1.3-1.8c0.5-0.7,0.8-1.5,1.3-2.1
	c0.3-0.7,0.5-1.3,0.5-2.1c0.3-0.5,0.7-1,1.3-1.3c0.7-0.2,1.2-0.3,1.3-0.3c0,0,0.2-0.5,0.3-0.8c0.3-0.7,0.5-1.3,0.5-2
	c0.3-0.8,0.5-1.5,0.5-2.3c0-0.8,0.3-1.3,0.7-1.8c0.5-0.3,1.3-0.5,2.8-0.5l1-0.3l0.7-0.5c0.7-1.3,1.3-2.1,1.8-3
	c0.3-0.5,0.7-1.3,1.2-2.1c0.3-0.8,0.7-1.5,1.3-2.1c0.7-0.5,1.2-1.3,1.3-2c0.3-0.8,0.5-1.5,0.5-2.6c0-0.7-0.2-1.5-0.7-2.3
	c-0.5-0.7-0.8-1.3-1.3-1.6c-0.3-0.5,0-0.7,1-0.8c1.2-0.2,1.5-0.3,1.6-0.8c-0.2-0.3-0.3-0.7-0.7-1c-0.5-0.5-0.5-1-0.5-1.5
	c0.2-0.8,0.2-1.5-0.3-2c-0.5-0.7,0-1.3,1.2-2.1c1-0.8,1.3-1.5,1.5-2c0-0.5,0.5-1,1.5-1.2c0.8-0.2,1.8-0.3,2.5-0.5
	c0.7,0,1.3,0.2,2.3,0.5c0.5,0.3,1,0.5,1.2,0.5l0.2-0.7c0.2-0.5,0-1.2-0.5-1.8c-0.5-0.5-0.8-1-1.2-1.3s-0.5-0.8-1-1.5
	c-0.5-0.7-0.7-1.3-0.8-2.1c-0.3-0.8-0.3-2,0.3-3.6c0.5-1.5,1.3-2.5,2-2.8c1,0,1.3-0.5,1.3-1.3c0-0.8,0.3-1.3,0.7-1.6
	c0.5-0.3,0.8-0.7,1.2-1.3c0.2-0.5,0.5-0.8,1.3-1.3c0.7-0.5,1.3-1.3,1.6-2.1c0.2-1,0.2-1.8-0.5-2.6c-0.5-0.7-1.3-1.3-2.6-2
	c-1.3-0.5-2.1-1-3.1-1.3c-1-0.5-2-0.7-3.1-1.3c-1-0.5-1.8-0.5-2.5-0.5c-0.5,0-1.3,0.2-1.6,0.5c-0.3,0.2-0.8,0.2-1.5,0
	c-0.7-0.5-1.3-1-1.5-2c-0.5-1-1.2-2.1-2.1-3.5c-1.3-1.3-2.3-2-3.1-2.1c-0.7,0-1.3,0-2.1-0.2c-0.8,0-1.5-0.2-2.1-0.5
	C527.9,268.8,526.7,268.1,525.4,267.3z"/>
<path fill="#CDCCCC" stroke="#FFFFFF" stroke-width="1.1" stroke-linejoin="round" d="M423.2,360.1c-1.2-0.3-1.8-0.5-2.5-1
	c-0.5-0.5-1.2-0.5-2.1-0.5c-0.7,0.5-1.6,0.5-2.6,0c-1-0.2-2-0.5-3-1c-1-0.3-1.6-0.3-2.3,0c-0.7,0.5-1.3,0.5-1.8,0.3
	c-0.7-0.2-1.3-0.3-2.6-0.3c-1.3,0.2-2.5,0-3.6,0c-1-0.3-1.3-0.3-1.5-0.3c0,0-0.5,0.5-1.2,1.2c-0.7,0.8-1.3,1.3-2,1.5
	c-0.8,0.3-1.5,0.5-2.3,0.8c-0.8,0.5-1.3,1.2-1.8,2.3c-0.5,1.2-0.8,2.1-1.2,2.8c-0.5,0.5-1,1-1.5,1.5s-1,1-1.3,1.6
	c-0.3,0.7-0.5,1.6-0.8,2.8c-0.3,1-0.3,1.8-0.3,2.1c0,0.5-0.2,0.8-0.3,1.2c-0.5,0.2-0.8,0.5-1.3,0.5c-0.7,0.2-1,0.3-1.2,0.3
	c0.2,0,0,0.5,0,1c0,0.7,0,1.3,0.3,2c0.5,0.8,0.5,1.3,0,1.6c-0.3,0.5-0.5,0.8-0.5,1.6c0,0.7-0.2,1.3-0.5,2c-0.2,0.5-0.5,1.2-0.7,1.8
	s-0.3,1.3-0.3,2c0.2,0.8,0,1.3-0.5,2c-0.2,0.7-0.5,1.3-0.7,1.8l-0.5,0.7c0,0.3,0,0.7,0,1.3c0,0.5,0,0.7,0,0.7s0.5,0.3,1,0.5
	c0.7,0.3,1.2,0.2,1.5-0.3c0.5-0.3,0.7-0.3,1-0.3c0.5,0.2,0.8,0.3,1.3,0.3c1-0.2,1.6,0,2.3,0.5c0.5,0.3,1,1,1.2,2.1
	c0.3,1.2,0.5,2.1,1.3,3.3c0.5,1,0.7,1.6,0.7,1.6c0.2,0,0.7,0,1.5,0.2c0.7,0,1.3,0,2,0c0.7,0,1.3,0.3,2.1,0.7c1,0.5,2,0.7,2.8,0.7
	c1-0.2,1.8-0.2,2.3,0c0.7,0,1.3,0.3,1.8,0.5c0.5,0.2,1.3,0.3,2.5,0.5c1,0.3,2,0.5,2.8,1c0.8,0.5,1.6,0.7,3,0.7c1-0.2,2,0,2.8,0.5
	c0.8,0.3,1.5,0.5,2.1,0.5c0.5-0.2,1-0.5,1-1.3c0.2-0.8,0.5-1.6,1-3h1.3c2-0.3,3.3-0.8,4.1-1.8c0.8-0.7,1.8-1.2,2.5-1.3
	c0.5,0.2,1,0.2,1.3,0.3c0.5,0.3,1,0.3,1.3,0.3c0.8-0.2,1.5-0.3,2.3-0.2c1,0,2,0.3,2.6,0.8c0.8,0.5,1.3,0.8,1.8,1.2
	c0.5,0.3,1.2,0,2.3-0.7c1-0.5,1.6-1.2,2-1.3c0.5-0.2,1.2-0.2,2.1-0.5c1,0,2.1-0.2,3.1-0.3c0.8,0,1.3-0.2,1.3-0.2l-0.3-0.5
	c-0.3-0.2,0-0.3,0.5-0.5c0.5-0.3,0.8-0.5,1.2-0.7c0.2-0.5,0.5-1,0.8-1.3c0.5-0.5,0.5-0.7,0-1c-0.5-0.2-1.2-0.5-1.8-0.7
	c-1-0.2-1.3-0.5-1.3-0.8c0.2-0.5,0.3-0.5,0.8-0.3s1,0.3,1.3,0.3c0.5,0,0.5-0.3,0.7-0.5c0-0.2,0.2-0.5,0.3-0.8
	c0.3-0.3,0.5-0.7,0.7-0.7c0.3,0,0.5,0,0.7,0.2c0.5,0.3,0.5,0.5,0.8,1c0.2,0.5,0.3,0.7,0.7,0.3c0.5-0.3,0.7-0.5,1-0.7
	c0.3-0.3,0.5-0.3,0.5-0.5c-0.2,0-0.3-0.2-0.5-0.7c-0.5-0.5-0.8-1.3-1.2-2.1c-0.3-0.7-0.8-1.2-1.3-1c-0.7,0.2-1.3,0-1.5-0.5
	c-0.5-0.3-0.5-0.8-0.5-1.8s-0.3-1.3-0.7-1.8c-0.5-0.3-1-0.3-1.6-0.3c-1,0-1.8-0.3-2.8-0.5c-1.2,0-2-0.3-2.5-0.5
	c-0.5-0.5-0.7-1.2-0.5-1.8c0.3-0.8,0.3-1.6,0.2-2.1c-0.3-0.5-0.5-1-0.7-1.5c-0.3-0.7-0.7-1.5-1.3-2.5c-0.5-1-1-1.5-1-1.8
	c0-0.5-0.2-1-0.2-1.6c-0.3-0.5-0.3-1.2-0.3-2.1c-0.2-0.8-0.3-1.6-0.3-2.5c-0.2-0.7-0.5-1.3-0.7-2.1c-0.5-0.3-1.2-1-2.1-1.6
	c-0.8-0.7-1.6-1.2-2.5-1.2c-1.2,0-2.5,0-4.1,0.2c-1.8-0.2-3.1-0.5-4-0.8C425,360.9,424.2,360.6,423.2,360.1z"/>
<path fill="#CDCCCC" stroke="#FFFFFF" stroke-width="1.1" stroke-linejoin="round" d="M449.2,399.6c-0.2,0-0.5,0-1.3,0.2
	c-1,0.2-2.1,0.3-3.1,0.3c-1.3,0.2-2,0.3-2.3,0.5c-0.2,0.3-0.8,0.7-2,1.3c-1.2,0.7-1.8,1-2.1,0.8c-0.5-0.3-1.2-0.5-1.8-1.2
	c-0.7-0.5-1.6-0.8-2.6-0.8c-0.8-0.2-1.6,0-2.3,0.2c-0.5,0-1,0-1.3-0.3c-0.5-0.2-1-0.2-1.3-0.3c-0.8,0.2-1.6,0.5-2.5,1.3
	c-0.8,1-2.1,1.5-4.1,1.8H421c-0.5,1.2-0.8,2-1,3c0,0.5-0.5,1-1,1.3c-0.7-0.2-1.5-0.3-2.1-0.5c-1-0.5-2-0.5-3-0.5
	c-1.2,0.2-2-0.2-2.8-0.5c-0.8-0.5-2-0.7-2.8-1c-1.2-0.3-1.8-0.5-2.5-0.5c-0.5-0.2-1.2-0.5-1.6-0.5c-0.7,0-1.5,0-2.5,0
	c-1,0.2-1.8,0-2.8-0.5c-0.8-0.5-1.6-0.7-2.1-0.7s-1.3,0-2.1,0c-0.7-0.2-1.3-0.2-1.3-0.2c0,0.2-0.2,0.5-0.3,1.2
	c-0.3,0.7-0.5,1.6-0.5,2.8c0,1,0,1.8,0,2.3c0.2,0.5,0.2,1.2,0.3,1.6c0,0.7-0.2,1.3-0.5,2.1c-0.3,0.7-0.5,1.2-0.5,1.3
	c0.2-0.2,0.5,0,1,0.3c0.7,0,1.6-0.2,2.8-0.5c0.8-0.5,1.3-0.5,1.8-0.2c0.3,0.5,0.7,0.5,1.3,0.5c0.7-0.3,1.3-0.2,1.8,0.3
	c0.5,0.2,0.8,0.5,1.3,0.5s1,0,1.5,0.2c0.7,0,1.3,0.2,2.1,0.2c0.7-0.2,1.3,0,1.8,0.5c0.5,0.2,1,0.2,1.5,0s0.8-0.2,1.3,0
	c0.5,0.5,1,1,1.5,1.3c0.3,0.5,0.8,1.2,1,1.5c0.5,0.5,1,0.5,1.6,0.3c0.7-0.3,1-0.3,1.3,0c0.5,0.3,0.8,0.5,1.5,1s1.3,0.7,1.6,0.7
	c0.5,0.3,0.7,0.5,1,1c0.5,0.5,0.7,0.7,1.3,0.8c0.7,0.2,1,0.3,1,1c0.2,0.5,0.3,0.8,1,1.3c0.5,0.2,1,0.7,1.2,1.2
	c0,0.5,0.2,0.7,0.3,0.8c0.5,0.2,0.5,0.3,0.5,0.7c0.2,0.5,0.3,0.5,0.7,0.8c0.5,0.2,0.7,0.5,0.8,1c0,0.5,0.5,0.8,1.3,1.2
	c0.8,0,1.5,0.2,2.1,0.3c0.7,0,1.3,0.3,1.6,0.7c0.5,0.2,1,0.2,1.5,0c0.8-0.5,1.3-0.5,1.5-0.5c0.2,0.2,0.5,0.2,0.8,0
	c0,0.2,0.2,0.3,0.5,0.7c0.2,0.5,0,1-0.5,1.3c-0.7,0.5-1,1.2-1.3,1.6c-0.2,0.5-0.5,1-0.5,1.6c0,0.7-0.2,1.3-0.7,1.8
	c-0.3,0.5-0.7,0.7-1,1.2c-0.3,0.3-0.3,0.7,0,1.3c0.5,0.5,0.8,0.3,1-0.2c0.5-0.5,1-0.7,1.3-0.5c0.5,0.3,1.3,0.5,1.8,1.2
	c0.3,0.2,0.5,0.2,0.5,0.3c0-0.2,0.3-0.5,0.8-1.3s1-1.3,1.5-1.8s1.2-1.2,1.8-1.3c0.7-0.7,1.5-1.3,2.3-2c0.7-0.8,1.3-1.3,2.1-1.5
	c0.5-0.2,0.8-0.5,0.7-0.7c0-0.5,0-0.7,0.5-1.3c0.3-0.5,0.8-1.3,1.2-2.3c0.5-1.3,1.2-2.3,1.3-3.1c0.3-0.8,0.7-1.6,1.2-2.8
	c0.3-0.8,0.7-1.6,1-2.3c0.5-0.7,0.5-1.3,0.3-1.6s-0.5-0.3-1,0c-0.3,0.3-0.7,0.5-1,0.5s-0.3,0,0-0.5c0.2-0.5,0.2-1,0-1.3
	c-0.3-0.5-0.3-1,0.2-1.3c0.3-0.5,0.3-0.8,0.2-1.3c-0.3-0.3-0.3-0.7-0.3-1c-0.2-0.5-0.3-0.7-0.3-1.2c-0.2-0.5-0.2-0.8-0.2-1.5
	c0-0.7-0.2-1.3-0.3-1.8c-0.2-0.7,0-1.3,0.3-2.1c0.3-0.7,0.2-1.3-0.2-2c-0.5-0.7-0.7-1.3-0.7-2c0-0.5,0.2-0.5,0.7,0
	c0.5,0.3,0.8,0,0.8-0.7c0-0.8,0-1.5,0-2.1C449.2,400.1,449.2,399.8,449.2,399.6z"/>
<path fill="#CDCCCC" stroke="#FFFFFF" stroke-width="1.1" stroke-linejoin="round" d="M419.6,421.2c-0.3-0.5-0.5-0.7-1-0.8
	c-0.5-0.2-1.2-0.5-1.8-0.8c-0.5-0.2-1.2-0.5-1.5-0.8c-0.2-0.5-0.7-0.5-1.3,0c-0.7,0.2-1.2,0.2-1.3-0.5c-0.3-0.3-0.7-0.8-1.2-1.3
	s-1.2-1-1.5-1.3c-0.3-0.3-0.8-0.3-1.3,0c-0.5,0.2-1,0.2-1.3-0.2c-0.5-0.2-1.3-0.5-2-0.3c-0.7-0.2-1.3-0.2-2-0.3
	c-0.5-0.2-1-0.2-1.5-0.2c-0.5-0.2-1.2-0.3-1.5-0.5c-0.5-0.3-1-0.3-1.6-0.3c-0.7,0.2-1.2,0-1.5-0.5c-0.3-0.3-1-0.2-2,0.3
	c-1,0.3-1.8,0.5-2.6,0.5c-0.5-0.2-0.8-0.3-1-0.3c0,0-0.3,0-0.8,0c-0.5,0.2-1.2,0.3-1.5,0.8c-0.5,0.7-1.2,1-1.3,1
	c-0.5,0.2-0.5,0.5-1,0.8c-0.3,0.5-0.7,0.7-1.3,0.7c-0.5-0.2-1,0.2-1.3,0.3c-0.5,0.3-0.7,0.5-1.2,0.5s-0.7,0.2-1,0.3
	c-0.2,0.5-0.5,0.5-1.2,0.8c-0.8,0.3-1.2,0.5-1.3,1c-0.2,0.3-0.5,0.8-0.8,1.5c-0.7,0.3-1.5,0.7-2.1,1c-0.8,0.3-1.6,0.7-2.1,1.2
	c-0.5,0.7-1.3,1.3-2.1,2.1c-1,0.7-1.3,1.5-1.3,2.1c0.2,0.5-0.2,1-0.7,1.2c-0.5,0.2-1.2,0.7-1.8,1.5c-0.7,1-1.3,2-2.5,3.1
	c-0.8,1-1.5,1.6-2.1,2.3c-0.3,0.8-1,1.6-1.8,2.6c-1,1-1.6,2.1-2.1,2.8c-0.8,0.8-1.5,1.8-2.1,3.1c-0.7,1.3-1.5,2.1-2.3,2.1
	c-1,0.2-1.3,0.5-1.3,1.2c-0.2,0.7-0.5,1.3-0.8,1.5c-0.5,0.5-0.8,1-1.5,1.6c-0.5,0.7-0.8,1.2-1,1.2c0.2,0,0.7,0.2,1.8,0.5
	c1,0,1.6,0,2.1,0c0.3-0.5,0.7-0.7,1-1.2c0.5-0.5,1.2-0.8,2-1.3c0.7-0.2,1.3,0.2,2.1,0.8c1,0.8,2,1.6,2.6,2.5c1,0.7,2,1.5,3,2.3
	c1,0.8,1.6,1.8,2.1,2.5c0.5,0.7,0.5,1.3,0.8,2.1c0.2,0.5,0.3,1,0.8,1.2c0.7,0.2,1.3-0.2,1.8-1.2c0.5-0.7,1.3-1.2,2-1.2
	c0.5,0.3,1.2,0.5,1.5,1.3c0.5,1,1.2,1.6,1.8,2.3c0.7,0.8,1.3,1.3,2,1.8c0.5,0.3,1.2,0.5,1.6,1c0.7,0.3,1.3,0.5,2.3,1s1.8,1.2,2.3,2
	c0.7,0.7,1.5,1.3,2.5,2c1,0.5,1.8,1,3,1.3c0.7,0.5,1.3,1.2,2.1,2.1c0.5,0.7,1,1.3,1.2,2.3c0.3,0.8,0.8,1.6,1.6,2.5
	c1,1,1.8,1.6,2.5,2c1,0.5,1.3,0.8,1.3,0.8s0.3-0.3,0.5-0.5c0.5-0.5,0.7-1,0.8-1.3c0.3-0.5,0.7-1,1.3-1.2c0.5-0.3,0.7-0.7,0.7-1
	c0-0.5,0.5-0.8,0.8-1.3c0.5-0.5,0.7-0.3,0.5,0.3c0,0.8,0,1.3,0.5,1.8c0.2,0.5,0.3,1.2,0.5,1.6c0,0.5-0.3,1.3-0.7,2.3
	c-0.5,0.8-0.5,1.2,0,1c0.5,0,0.5,0.2,0.5,0.8c-0.2,0.7-0.5,1.3-0.7,2c-0.2,0.5-0.5,1-0.7,1.3c-0.3,0.5-0.7,0.7-1.2,1.2
	c-0.3,0.3-0.7,1-1.2,1.6c-0.3,0.7-0.3,0.8,0.3,0.5c0.5-0.5,1.2-1.2,1.5-1.6c0.5-0.5,1.2-1.2,1.5-1.5c0.5-0.5,0.8-1.3,1.2-2.6
	c0.5-1.3,0.7-2.3,1.2-3.8c0.3-1.3,0.8-2.5,1.2-3.1c0.5-0.5,1-1,1.3-1.5c0.5-0.5,1.2-0.8,1.5-1.5c0.5-0.7,1.2-1.2,1.3-1.3
	c0.5-0.3,1-0.7,1.8-1.3c0.8-0.7,1.6-1.3,2.6-2.1c1-0.7,2-1.3,3.1-2c0.7-0.8,1.5-1.5,2.1-2.1c0.7-0.7,1.3-1.3,2-2.1
	c0.5-0.7,1.3-1.6,2.1-2.8c0.7-1.3,1.5-2.6,2.6-3.8c0.8-1.3,1.6-2.8,2.3-4.6c0.5-1.5,1.3-3.1,1.8-4.8c0.7-1.3,1.3-2.5,1.8-3.6
	c0.5-1,1.3-2.1,1.8-2.8c0.7-0.7,0.8-1,1.2-1.2c-0.3-0.2-0.5-0.3-0.5-0.5c-0.5-0.5-1.3-0.8-1.8-1.2c-0.5-0.3-1-0.2-1.3,0.5
	c-0.3,0.5-0.7,0.5-1,0.2c-0.5-0.5-0.5-0.8-0.2-1.3s0.8-0.7,1.2-1.2c0.5-0.5,0.5-1,0.7-1.8c0-0.5,0.3-1.3,0.5-1.6
	c0.5-0.5,0.8-1,1.3-1.5s0.7-1.2,0.5-1.3c-0.3-0.5-0.5-0.7-0.5-0.8c-0.3,0.2-0.5,0.2-0.8,0c-0.3,0-0.7,0.3-1.3,0.5
	c-0.7,0.3-1.3,0.3-1.6,0c-0.3-0.5-0.8-0.7-1.5-0.7c-0.8-0.2-1.5-0.2-2.3-0.3c-0.7-0.3-1.2-0.5-1.3-1.2c0-0.5-0.3-0.8-0.8-1
	s-0.5-0.5-0.5-0.7c-0.2-0.5-0.3-0.7-0.5-0.7c-0.2,0-0.3-0.5-0.5-1c-0.2-0.5-0.5-0.8-1-1.2c-0.7-0.3-1-0.7-1.2-1.3
	c0-0.5-0.3-0.8-0.8-0.8C420.4,421.9,419.9,421.5,419.6,421.2z"/>
<path fill="#CDCCCC" stroke="#FFFFFF" stroke-width="1.1" stroke-linejoin="round" d="M391.6,292.3c0,0.5-0.3,0.8-0.8,1.3
	c-0.5,0.7-1.3,1.3-2,1.6c-0.8,0.5-1.3,1-2,1.2c-0.3,0-1,0-1.6-0.3c-0.7-0.3-1.5-0.5-2.5-0.8c-0.8-0.2-1.5,0-2.3,0.5
	c-0.8,0.5-2,1-3.1,1.2c-1.2,0.2-2.1,0-3.1-0.5c-0.8-0.5-1.6-1.3-2.6-2.1c-0.7-0.8-1.5-1.3-2.6-1.6c-0.8-0.5-1.6-0.7-2.1-1.2
	c-0.5-0.3-0.8-0.5-1.3-0.5c-0.5,0.2-1.3,0.5-2.1,1.2c-1.2,0.5-2,0.7-3.1,0.7c-1.2,0.2-2.1,0.3-2.8,0.8c-0.7,0.5-1.3,1.2-1.6,1.8
	c-0.5,0.8-1,1.5-1.3,2.1c-0.5,0.7-1.3,1-2,1.3c-0.7,0-1.3,0.3-2,0.8c-0.7,0.5-1,0.7-1.2,0.8l-0.5-0.7c-0.5-0.5-1-0.8-1.5-1.2
	c-0.7-0.8-1.2-1.3-1.3-1.8c0,0.2,0.2,0.7,0.3,1.6c0.3,1.2,0.7,2.3,1.3,3.8c0.7,1.3,0.8,2.1,0.8,2.8c-0.2,0.5-0.7,1.6-1.2,3.3
	c-0.5,1.6-1,3.1-1.3,4.4c-0.2,1.3-0.8,3.3-2,5.8c-0.8,2.6-0.8,4.6,0,5.9c1.2,1,1.6,1.6,1.8,1.6c-0.2,0-0.3,0.2-0.7,0.5
	c-0.5,0-0.7,0.2-1.2,0.3c-0.2,0.2-0.5,0.5-1,0.8c-0.5,0.5-0.7,0.8-1,1c-0.2,0.3-0.3,0.5-0.5,0.5c0.2,0,0.2,0.2,0.5,0.5
	c0,0.3,0.3,0.7,0.5,1.3c0,0.5,0.3,0.7,0.5,1c0.2,0.5,0.3,0.8,0.5,1.5c0.3,1,0.5,1.3,0.8,1.8c0.5,0.5,0.7,1,0.8,1.6
	c0,0.8,0,1.3,0.3,2c0.3,0.5,0.3,1.2,0.3,1.8c-0.3,0.7-0.5,1.3-0.5,2c-0.3,0.7-0.5,1.3-0.5,1.6c-0.2,0.5,0,1.3,0.2,2
	c0.2,0.7,0.2,1.3,0,1.8c-0.2,0.5-0.3,1-0.2,1.6c0.2,0.7,0.2,1.3,0,1.8c-0.3,0.5-0.3,1-0.3,1l0.8,0.2c0.5,0.2,1,0.2,1.5,0
	c0.3,0,1.3,0.3,2.5,0.7c1.3,0.5,2.3,0.5,3,0.5c0.5-0.3,1.2-0.3,1.5,0.2c0.7,0.2,1.2,0.5,1.3,0.3c0.5-0.2,0.8,0.2,1.3,0.5
	c0.7,0,1.2,0,1.3-0.3c0.5-0.5,0.7-0.5,1.3-0.5c0.3-0.2,0.8-0.5,1.3-0.7c0.3-0.5,0.7-1,1-1.3c0.5-0.3,0.7-0.2,1.2,0.2
	c0.2,0.3,0.5,0.8,1.2,1.3c0.5,0.5,1.3,0.8,2.3,1c0.8,0.2,1.6,0.3,2.5,0.7c0.8,0.3,1.3,1,1.8,1.8c0.3,0.7,0.7,1.3,1.2,1.8
	c0.3,0.2,0.5,0.7,0.3,1.3c-0.2,0.7-0.3,1.3-0.3,2c0.2,0.8,0.3,1.5,0.5,2.1c0.5,0.7,0.5,1.3,0.7,1.8c-0.2,0.5-0.2,1.2,0,1.5
	c-0.2,0.5-0.2,1.2,0,1.6c-0.2,0.7,0,1.5,0.5,2.1c0.3,0.5,0.7,1.3,0.8,2.3c0.2,0.8,0.5,1.3,1.3,1.8c0.7,0.3,1.5,0.3,2.3,0.3
	c1.2-0.2,1.8-0.5,2.3-0.7c0.5-0.3,1.2-0.7,1.8-1.2c0.5-0.3,1.3-0.5,1.8-0.3c0.7,0.5,1.3,0.8,2,1.5c0.5,0.7,1,1.3,1,1.3
	s0.5,0,1.2-0.2c0.5-0.2,1-0.5,1.3-0.5c0.3-0.3,0.5-0.7,0.5-1c0-0.5,0-1.3,0.2-2.3c0.3-1,0.5-2,1-2.6c0.3-0.7,0.8-1.3,1.3-1.6
	c0.5-0.5,1-1.2,1.3-1.6c0.5-0.7,0.8-1.6,1.2-2.8c0.5-1.2,1.2-1.8,2-2.3c0.7-0.3,1.5-0.5,2.1-0.7c0.7-0.3,1.3-0.8,2.1-1.5
	c0.5-0.7,1-1.3,1.2-1.3c0,0,0.3-0.3,1-1c0.8-0.7,1.6-1.2,2.5-1.5c0.7-0.5,1.3-0.7,1.6-1c0.5-0.2,1-0.8,1.5-1.8
	c0.5-0.8,1.3-1.6,1.8-2.3c0.5-0.7,1.2-1.3,1.5-2.1c0.5-0.5,0.7-1.3,0.7-2c0-0.5,0.2-0.8,0.5-1c0.3-0.3,0.8-0.5,1.3-1.2
	c0.3-0.5,0.7-1.2,0.7-1.8c0-0.8,0.3-1.6,0.8-2.3c0.3-0.8,0.8-1.5,1-2c0.5-0.5,0.5-1.2,0.7-2.1c0.3-1,0.5-1.6,1.2-2.5
	c0.7-0.7,1.3-1.3,1.6-2c0.5-0.5,1.3-0.7,2-0.8c0.7,0,1.3-0.2,2-0.5c0.3-0.2,0.7-0.7,0.8-1.6c0-1,0.2-1.3,0.2-1.6
	c0-0.2-0.2-0.3-0.2-0.8c-0.2-0.5-0.3-1-0.5-1.3c-0.2-0.5-0.2-1,0-1.6c0.2-0.5,0.5-1,0.7-1.3c0.3-0.5,0.5-1,0.5-1.3
	c0-0.5,0-0.5,0-0.7c0,0-0.3-0.3-0.8-0.7c-0.5-0.7-1.2-1-1.5-1.3c-0.5-0.2-1.3-0.5-2.1-1c-0.7-0.5-1.6-1-2.5-1.2
	c-0.8-0.2-2-0.5-3-0.8c-0.8-0.5-2-1.2-2.8-1.8c-0.8-0.7-1.6-1-2.1-1.2c-0.5,0-1.2-0.5-1.8-0.8c-0.5-0.5-1.2-0.8-1.6-0.5
	c-0.5,0-1.3,0-2.5-0.5c-1-0.3-1.3-0.8-1.5-1.2c0.2-0.5,0.2-1.3,0-2.1c0.2-0.7-0.2-1.3-0.8-1.3c-0.5-0.5-0.8-1-1.2-1.6
	c0-0.8,0-1.5-0.3-2.1c-0.3-0.3-0.5-0.5-0.5-0.7h-1.2c-0.7,0-1.5,0-2.3,0c-0.7,0-1.3,0-1.8-0.2c-0.5,0-1,0.2-1.3,0.2
	c-0.5,0.2-1.2,0-1.8-0.5c-1-0.5-1.3-0.8-1.3-1.3c0.2-0.5,0.5-1.2,1.3-1.5c0.5-0.8,0.8-1.3,1.3-2.1c0.2-0.7,0.3-1.5,0.5-2.5
	c0-0.8-0.2-1.3-0.5-1.3C392.4,291.8,392.1,292,391.6,292.3z"/>
<path fill="#CDCCCC" stroke="#FFFFFF" stroke-width="1.1" stroke-linejoin="round" d="M429.3,222.3c-0.3-0.5-0.3-1.3-0.2-2.1
	c0.2-1,0.3-1.8,0.5-2.6c0.2-0.8,0.2-2,0.3-3.3c0-1.3,0.5-2.3,0.8-3.6c0.5-0.8,0.7-1.5,1-2c0.2-0.5,0.3-0.8,0.8-1.3s0.5-1.2,0.5-2
	c-0.2-0.5,0-1.2,0.5-1.6c0.5-0.7,0.8-1.2,0.8-1.6c0.3-0.5,0.5-1,0.5-1l-75.1-4.4c0-0.2-0.5-0.3-1.2-0.5c-0.5-0.2-1-0.3-1.5-0.2
	c-0.5,0-1-0.5-1.5-1c-0.5-0.7-0.8-1-1.3-1c-0.5,0.3-1.2,0-1.5-0.7c-0.5-1-1.2-1.6-2.1-2.1c-1-0.5-1.6-1-2.1-1.6
	c-0.5-0.5-0.8-0.8-1.3-1c-0.5,0-1-0.5-1.2-1.3c-0.3-1-0.5-1.8-0.7-2.8s-0.3-1.8-0.5-2.5c-0.2-0.8-0.7-2-1.2-3.1
	c-0.5-1.2-1-2.1-1.2-3.1c-0.3-1-0.7-1.8-1.3-2.6c-0.5-0.7-0.8-1.3-1.3-2c-0.5-0.5-0.7-0.7-0.7-0.8c-0.2,0.2-0.3,0.3-0.7,0.8
	c-0.5,0.7-0.5,1.3-0.5,2.1s-0.5,1.3-0.7,2.1c-0.5,0.5-0.7,0.8-0.8,1.3c-0.2,0.3,0.2,0.7,0.5,1.3c0.2,0.5,0.5,1.2,0.5,1.6
	c-0.3,0.5-0.5,1.3-0.5,2c-0.2,0.7-0.5,1.3-0.7,1.6c-0.5,0.5-0.5,1.2-0.5,1.6c0,0.5-0.2,1-0.3,1.5c-0.2,0.5-0.2,0.8-0.2,1L298,189
	c0,0.2,0,0.5,0.3,0.8c0.3,0.7,0.3,1.3,0,2.1c-0.2,0.5-0.2,1.3,0.2,1.6c0.3,0.7,0.2,1.2-0.5,1.3c-0.5,0.3-0.7,0.5-0.3,1
	c0.3,0.3,0.5,0.8,0.5,1.3c0.2,0.5,0.3,1.2,0.3,1.6c0,0.5,0,1.2,0,1.5c0,0.5,0,1,0,1.8c0,0.7,0,1.5,0,2.1c-0.2,0.8-0.2,1.5-0.2,2.1
	c0.2,0.5,0.3,1.2,0.7,1.6c0.3,0.5,0.5,1.2,0.3,1.6c0,0.5,0,1.3,0,2s-0.2,1.3-0.2,1.6c-0.3,0.5-0.3,1.2,0,1.6c0.2,0.5,0.5,0.8,1.3,1
	c0.7,0.2,2.8,0.2,5.8,0.3c3.1,0,5.1,0.2,5.8,0.5c0.5,0.2,1.3,0.2,2.5,0.2c1.3-0.2,2.3,0.5,3.3,1.3c0,0,0,0.5,0,0.8l0.3,0.8
	c0.2,0.7-0.3,1.5-0.8,2.1c-0.7,0.8-1,1.6-0.8,3c0.2,1.2,0.5,2.1,1.3,2.6c0.5,0.5,0.8,1.2,1,2c0,1,0.2,1.6,0.5,2.3
	c0.2,0.7,0,1.6-0.5,2.8c-0.5,1.3-0.8,2.3-1.2,3.3c-0.5,1-0.8,1.8-1.6,2.3c-0.7,0.5-1.3,1.3-1.6,2.1c-0.5,1-0.7,1.8-0.7,2.5
	c-0.2,0.5-0.7,1-1.3,1.3c-0.8,0.3-1.5,0.8-2.1,1.5c-0.5,0.5-1,1-1,1.2c0,0,0.5,0.2,1.3,0.7c0.8,0.5,1.3,1.2,2.1,1.8
	c0.5,0.7,0.5,1.3,0.5,1.6c-0.2,0.5-0.3,1-0.3,1.6c0,0.5,0.2,1.3,0.5,2.1c0.3,0.8,0.7,2,1.3,3c0.3,1.2,0.5,2.5,0.5,4.1
	c-0.3,1.6-0.8,2.3-1.6,2.5c-1,0.2-1,0.7-0.3,1.5c0.7,0.8,1.3,1.8,2,2.5c0.3,0.7,0.7,1.6,0.8,2.6c0.5,1.3,0.5,2.6,0.7,4
	c0,1.3,0.3,2.3,0.5,2.8c0.7,0.5,4,0.7,9.7,0.8c5.8,0.2,9.2,0,10.4-0.2c0.5-0.2,0.8,0.3,1,1.2c0,1-0.2,1.8-0.5,2.3
	c-0.5,0.7-0.5,1.5-0.5,2.5c0,1.2,0.3,2.1,0.5,2.8c0.3,0.7,0.5,1.5,0.5,2.1c0.2,0.5,0.5,1.3,1,1.5c0.7,0.5,1.5,1,2.3,1.3
	c0.8,0.5,1.3,0.7,1.8,0.7s1,0.3,1.3,1c0.7,0.5,1.2,0.8,1.2,1c0.2,0.3,0.7,1,1.3,1.6c0.7,0.5,1.2,0.7,1.6,1.2l0.5,0.7
	c0.2,0,0.5-0.2,1.2-0.7c0.7-0.5,1.3-0.8,2.1-1c0.7-0.2,1.3-0.5,2-1.2c0.5-0.7,0.7-1.3,1.2-2.1c0.5-0.7,1-1.3,1.6-1.8
	c0.7-0.5,1.8-0.8,2.8-0.8c1.3,0,2.1-0.3,3.1-0.8c0.8-0.5,1.6-1,2.1-1s1,0.3,1.5,0.5c0.5,0.5,1.3,0.7,2.1,1.3c1,0.3,1.8,0.8,2.6,1.6
	c0.8,0.7,1.8,1.3,2.5,2c1,0.5,2.1,0.5,3.3,0.5c1.2-0.2,2.1-0.5,3.1-1.3c0.8-0.5,1.6-0.5,2.5-0.5c1,0.3,1.6,0.5,2.3,0.8
	c0.8,0.3,1.3,0.3,1.8,0.3c0.5-0.2,1.2-0.5,1.8-1.2c0.7-0.5,1.3-1.2,2-1.6c0.5-0.5,0.8-1,1-1.3c0.3-0.3,0.5-0.5,1-0.5
	c0.3,0,0.5,0.5,0.5,1.3c-0.2,1-0.2,1.8-0.5,2.5c-0.5,0.7-0.7,1.3-1.3,2.1c-0.5,0.5-1,1.2-1.2,1.6c-0.2,0.3,0.3,0.8,1.2,1.3
	c0.8,0.3,1.3,0.5,2,0.5c0.3-0.2,0.8-0.2,1.3-0.2c0.3,0,1,0.2,1.6,0.2c0.8,0,1.8,0,2.5,0c0.7,0,1,0,1.2,0c-0.2-0.2-0.2-0.3-0.3-1
	c-0.2-0.7-0.5-1.5-0.7-2.3c-0.3-1.2-0.5-2.1-0.3-3.3c0.2-1.3,0.3-2.1,0.5-3.1c0.5-0.8,0.5-1.6,0.8-2.1c0.5-0.7,0.8-1.3,1.3-1.5
	c0.5-0.5,1-0.7,1.5-1c0.5-0.5,1-0.8,1.3-1.3c0.5-0.7,1.2-1.5,1.3-2.1c0.2-0.7,0.3-1.3,0.3-1.8c0.2-0.5,0.3-1,0.5-1.5
	c0.5-0.5,1-1.3,1.8-1.6c0.8-0.7,1.5-1.2,2-1.3c0.5-0.5,1-0.7,1.3-0.7c0.5-0.2,0.8-0.5,1.3-0.7c0.5-0.5,0.7-0.5,1.2-0.7
	c0.5,0,1-0.3,1.3-0.7c0.3-0.7,0.7-1.3,0.8-2.1c0.2-0.8,0.5-1.3,0.7-1.5c0.3-0.5,0.5-1,0.5-1.6c0-1,0.3-1.5,0.8-2.1
	c0.5-0.3,1.3-0.8,2.1-1c0.7-0.3,1.5-0.5,2.5-1.2c1-0.5,1.6-1.5,2.1-2.8c0.3-1.3,0.5-2.1,0.5-2.5c0.3-0.5,0.3-1,0.3-1.5
	c0.2-0.8,0.3-1.3,0.5-2.1c0.3-0.7,0.5-1.3,0.8-1.8c0.3-0.3,0.5-0.7,0.5-1.3c0-0.5,0-1.2,0-1.8c0.2-0.7,0.3-1.3,0.7-1.8
	c0.5-0.5,0.5-1.3,0.7-1.6c0-0.5,0.3-1,0.5-1.5c0.3-0.5,0.7-1,1-1.5c0.2-0.8,0.3-1.3,0.3-2.1c0.2-0.7,0.3-1.3,0.7-1.8
	c0.5-0.5,0.8-1,0.8-1.5c0-0.3,0-0.5,0-0.5c0-0.2-0.5-0.2-0.8-0.5c-0.5-0.3-0.7-0.5-1-1.2c-0.2-0.5-0.2-1.3,0-2.3c0.3-1,0.3-2,0-2.5
	c-0.5-0.7-0.5-1.3-0.5-1.5c0-0.5,0-1.3,0.2-2.3c0.2-1.2,0.2-2-0.2-2.5c-0.3-0.5-0.3-1,0-1.5C429.6,223,429.6,222.5,429.3,222.3z"/>
<path fill="#CDCCCC" stroke="#FFFFFF" stroke-width="1.1" stroke-linejoin="round" d="M464.5,243.6c0,0.8-0.5,0.8-1.6,0.3
	c-1.3-0.7-2.3-1.3-3-1.8c-0.5-0.3-1-0.5-1.3-0.3c-0.5,0-1.3,0.2-2.1,0.3c-0.8,0.3-1.6,0.3-2.1,0.3c-0.5,0.2-1,0.5-1.3,1
	c-0.2,0.5-0.3,0.8-0.5,0.8c-0.5-0.2-0.5-0.3-0.5-0.8c0-0.3-0.2-0.8-0.2-1.5c-0.3-0.7-0.5-1.3-0.8-2.1c-0.5-1-1-1.6-1.6-2.3
	c-0.8-0.3-1.5,0-2.3,1c-1,1.3-1.6,2.3-2.1,3.3c-0.5,0.7-1,1.2-1.3,1.3c-0.5-0.2-1.3-0.5-2.5-0.8c-1.3-0.5-2.5-1-3.6-1.5
	c-1.3-0.5-2.1-1.2-2.6-1.3c-0.3-0.5-0.5-1.3-0.5-2.1c0.3-1.2,0.5-2,0.8-3c0.2-0.7,0.2-1.2-0.5-0.8c-0.7,0.2-1.2,0.5-1.5,0.8
	c-0.3,0.5-0.7,1.3-1,2.3c-0.5,1-0.5,1.5-0.5,1.6c-0.2,0-0.2,0.3,0,0.5c-0.2,0.5-0.5,1.2-0.8,1.5c-0.5,0.5-0.5,1.2-0.7,1.8
	s-0.3,1.3-0.5,2.1c-0.2,0.5-0.5,1-0.8,1.5c-0.5,0.5-0.5,1-0.7,1.5c-0.2,0.5-0.3,1.2-0.5,1.6c-0.5,0.5-0.7,1.2-0.7,1.8
	s-0.2,1.3-0.2,1.8c0,0.7,0,1.2-0.3,1.3c-0.3,0.5-0.5,1.2-0.8,1.8c-0.2,0.7-0.3,1.3-0.5,2.1c0,0.5-0.2,1.2-0.3,1.5
	c-0.2,0.5-0.5,1.2-0.7,2.5c-0.5,1.3-1.2,2.1-2,2.8c-1,0.5-1.8,0.8-2.6,1.2c-0.8,0.2-1.5,0.7-2.1,1c-0.5,0.5-0.7,1.3-0.8,2
	c0,0.8-0.2,1.3-0.5,1.8c-0.3,0.3-0.5,0.8-0.5,1.5c0,0.7-0.5,1.3-1,2.1c-0.5,0.5-1,0.7-1.3,0.7c-0.5,0.2-0.8,0.3-1.3,0.7
	c-0.5,0.3-0.7,0.5-1.2,0.7c-0.5,0-0.8,0.3-1.3,0.7c-0.5,0.3-1.3,0.7-2.1,1.3c-0.8,0.5-1.3,1-1.6,1.6c-0.3,0.5-0.5,1.2-0.5,1.5
	c0,0.5-0.2,1.2-0.3,1.8c-0.3,0.7-0.7,1.5-1.3,2.1c-0.3,0.5-0.8,1.2-1.3,1.3c-0.5,0.2-1,0.5-1.5,1c-0.3,0.3-0.7,0.8-1.3,1.5
	c-0.2,0.5-0.3,1.3-0.8,2.1c-0.2,1-0.5,2.1-0.5,3.1c0,1.2,0,2.1,0.3,3.1c0.3,1,0.5,1.8,0.8,2.5c0.2,0.5,0.2,1,0.2,1
	c0,0.2,0.2,0.3,0.5,0.7c0.3,0.5,0.3,1.3,0.3,2c0.3,0.8,0.5,1.3,1.2,1.6c0.7,0.3,1,0.7,0.8,1.5c0,0.8,0,1.5,0,2.1
	c0.2,0.3,0.5,0.8,1.5,1.2c1.2,0.3,2,0.5,2.5,0.3c0.5-0.3,1.2,0,1.6,0.5c0.7,0.5,1.3,0.8,1.8,1c0.5,0.2,1.3,0.3,2.1,1
	c0.8,0.7,2,1.3,2.8,1.8c1,0.5,2.1,0.7,3,1c0.8,0.2,1.8,0.5,2.5,0.8c0.8,0.5,1.5,1.2,2.1,1.3c0.5,0.3,1,0.5,1.5,1.2
	c0.5,0.5,0.8,0.8,0.8,0.8c0-0.2,0.2-0.3,0.7-0.7c0.3-0.5,0.8-1.2,1.5-1.8c0.8-0.7,1.3-1.2,2-1.3c0.5-0.3,0.7-0.5,0.8-1
	c0.2-0.3,0.3-0.7,0.5-1.3c0.2-0.2,0.3-0.7,0.7-1.3c0.2-0.7,0.7-1.3,1.3-1.5c0.7-0.5,1.5-0.7,2.5-0.8c1.2-0.5,2-0.5,2.6-0.5
	c0.8,0,1.8-0.2,2.8-0.5c0.8-0.5,1.5-0.5,2.1,0c0.7,0.5,1.3,0.5,2.1,0s1.5-1,2.5-1.5c0.8-0.5,1.6-0.8,2.6-1c1.2,0,2.1,0,3.6,0
	c1.3,0.2,2.3,0.3,3.1,0.5c0.7,0.3,1.3,0.5,2.1,0.8c0.8,0.3,1.6,0.5,2.3,0.3c0.7-0.3,1.5-0.7,2.1-1.3c0.7-0.5,1.5-1,2.1-1.5
	c0.7-0.5,1.2-0.7,1.3-0.8c0-0.2,0.2-0.2,0.5-0.3c0.3-0.2,0.5-0.7,0.5-1.3c-0.2-0.5-0.3-1-0.5-1.6c-0.2-0.5,0-1.2,0.2-1.3
	c0.3-0.5,0.3-1.3,0.3-2c-0.2-0.8-0.5-1.3-1.3-1.6c-0.5-0.3-1-0.5-1-1.2c0.3-0.3,0.7-0.8,1.3-1.6c0.5-0.5,1-1.2,1.5-1.3
	c0.5-0.2,0.8-0.7,1.2-1.3c0.3-0.8,0.2-1.8-0.5-3c-0.3-1.3-0.8-2.1-1.3-2.5c-0.5-0.3-0.8-0.8-0.8-1.5c0.2-0.7,0.5-1.3,0.7-2.1
	c0.3-0.5,0.3-1.3,0.3-2.1c0-0.5,0.7-1.3,1.6-1.8c1-0.5,2.1-0.8,3.1-1c0.8-0.2,1.3-0.7,1.3-1.3c0-0.7-0.3-1.3-0.5-2
	c0-0.7-0.2-1.3-0.2-2s0.2-1,0.5-1.2c0-0.5,0.2-1,0-1.6c0-0.7,0-1.3,0.3-1.6c0.5-0.5,1.3-0.7,2.1-0.5c0.7,0,1.3-0.3,1.3-1.3
	c0.2-1,0.5-1.6,0.8-2.1c0.5-0.5,1.2-0.5,1.6,0c0.5,0.5,0.7,1,0.8,1.3c0.3,0.3,0.8,0.5,1.5,0.7c1-0.2,1.3-0.2,1.3,0
	c0.2-0.2,0.5-0.5,1.2-1c0.5-0.5,0.7-1.3,0.5-2.5c-0.3-1.2-0.3-2,0-2.5c0.5-0.5,0.2-1-0.5-1.5s-1.3-1.3-1.8-2.3
	c-0.5-1.3-0.7-2.5-1.2-4c0-1.3,0-2.5,0.5-3.3c0.2-0.7,0.7-1.3,1.2-2.1c0.5-0.7,0.5-1.3,0-1.8s-0.5-1.2,0-1.8c0.3-0.7,0.3-1.3,0-2.1
	c-0.5-0.5-0.7-1.2-1-1.2c0,0-0.3,0.2-1.2,0.3c-0.7,0.3-1.5,0.5-2.3,0.5c-0.8,0.3-1.6,0.7-2.5,1.3c-1,0.7-2,1.2-3.1,1.3
	c-1,0.2-2.1,0.5-3.6,0.8c-1.3,0.5-2.3,0.5-3.1,0c-0.7-0.5-1.3-0.8-1.6-0.7C464.3,242.2,464.3,242.7,464.5,243.6z"/>
<path fill="#CDCCCC" stroke="#FFFFFF" stroke-width="1.1" stroke-linejoin="round" d="M467.8,273.7c-0.2-0.7-0.3-1.3-0.7-2
	c-0.7-0.5-2.3-0.8-4.9-1c-2.6,0-4,0-4.4,0c0,0.2,0,0.7,0,1.6c-0.2,1-0.2,1.6-0.5,2.1c-0.5,0.5-0.5,1.2-0.3,2
	c0.3,0.7,0.5,1.3,0.5,1.3l10,0.3c0,0,0.2-0.5,0.3-1.5C467.8,275.5,467.8,274.3,467.8,273.7z"/>
<path fill="#CDCCCC" stroke="#FFFFFF" stroke-width="1.1" stroke-linejoin="round" d="M206.5,193.4c-2.5-1.3-5.1-2.3-7.6-3.6
	c-2.5-0.8-4.8-2-6.9-2.8s-4.8-1.5-7.9-2.1c-3.3-0.5-6.3-1.3-9.2-1.8c-2.6-0.7-5.1-1.2-7.4-1.3c-2.1-0.3-4.8-1-7.4-2
	c-3.1-1-5.4-1.6-7.2-2.3c-1.6-0.7-2.5-1-2.6-1.2c0,0.2,0.2,0.5,0.5,1.5c0.2,0.8-0.3,1.3-1.2,1.6c-0.8,0.2-1.3,0.7-1.5,1.3
	c0,0.7,0.2,1.3,0.5,2c0.3,0.5,0.8,1,1.5,1.3c0.5,0.5,0.8,1.2,0.8,1.6c-0.2,0.7,0,1.3,0.5,1.5c0.5,0.5,1,1,1.3,2
	c0.3,1.2,0.7,2,1.3,2.5c0.3,0.5,0.8,0.8,1.3,1.2c0.5,0.3,0.8,0.7,1,1.3c0.3,0.7,0.7,1.3,1.3,1.6c0.7,0.3,1.3,0.8,1.8,1.5
	s1,1.2,1.2,1.5c0.2,0.5,0.3,1.3,0.3,2.1s-0.3,1.3-1,2c-0.5,0.3-0.8,0.7-0.8,1.2s0.8,0.7,2.1,0.5c1.3,0,2.5,0,3.6,0.2
	c1.2,0.2,2.1,0.3,3.1,0.5c1,0,1.6,0.7,2.1,1.3c0.5,1,0.7,1.6,1.2,2.1c0,0.5,0.3,0.8,0.3,1.3c0.2,0.5,0.7,0.7,2,0.8
	c1.3-0.2,2.8-0.2,4-0.2c1.3-0.2,2.3-0.2,3.1-0.3c0.7-0.3,1.5-0.8,2.5-1.5c0.8-0.8,1.8-1.5,3-2.5c0.7-0.8,1.6-1.6,2.3-2.1
	c0.5-0.5,1.2-1,1.6-1.3c0.5-0.2,0.7,0,0.5,0.7c-0.5,0.8-0.5,1.3-0.3,1.8c0.3,0.5,0.5,1,0.3,1.5c-0.2,1-0.2,3.6,0,7.4
	c0.2,4,0.3,6.4,0.7,6.6c0.3,0,1,0.5,1.6,1c0.8,0.5,2.1,0.3,4-0.5c1.6-0.8,3.3-1.2,4.8-1.2c1.2,0.2,1.6,0.3,1.8,0.3s0.5,0,1.3,0
	s1.8,0,3,0c1,0,2,0.2,3,0.3c1,0.3,1.8,0.7,2.5,1.2c0.8,0.3,1.5,0.2,2.1-0.3c0.5-0.5,1.3-1,2-1.3s1.3-0.8,1.8-1.6
	c0.3-0.5,1-1.3,1.6-1.6c0.7-0.5,1.3-0.7,2.1-1c0.7,0,1.3-0.2,1.8-0.2c0.5-0.2,0.8-0.3,1-0.8c0.5-0.5,1-0.8,1.5-1.3s1.2-1.2,2-2
	c0.7-1,1.3-1.2,2-1.2c0.5,0.2,1.3-0.5,2.6-1.8c1.3-1.2,2.1-2,2.6-2.3c0.3-0.5,0.5-0.5,0.5-0.5c-0.2,0-1.2-0.7-3-1.8
	c-1.8-1.2-3.8-2.1-5.6-2.8c-2-0.5-4-1.3-6.4-2.1c-2.1-0.8-4.8-1.6-7.1-2.6C211.8,196,209.2,194.7,206.5,193.4z"/>
<path fill="#CDCCCC" stroke="#FFFFFF" stroke-width="1.1" stroke-linejoin="round" d="M296.9,188.2c-0.7-0.2-1.3-0.2-1.6,0
	c-0.5,0.5-1,0.7-1.2,1.3c-0.5,0.5-1,0.5-1.8,0c-0.7-0.3-1.3-0.8-1.6-1.5c-0.3-0.8-0.7-1.3-1.3-1.6c-0.7-0.3-1.3-0.7-1.6-1.5
	c-0.3-0.5-0.7-0.8-1.3-1.2s-1.2-0.8-1.6-1.5c-0.5-0.7-1.5-1.3-2.5-1.6c-1.2-0.5-2.1-0.5-3.5-0.5s-2.5,0-3.8,0.3
	c-1.2,0.3-1.8,0.5-1.8,1.2c-0.5,0.7-0.8,1.3-1.8,2c-0.8,0.5-1.5,1.2-2.1,1.5c-0.5,0.5-0.7,1.2-0.5,1.6c0.3,0.5,0.3,1.2,0.3,1.8
	c0,0.3-0.3,0.5-0.7,0.7c-0.5,0-0.8,0.2-0.8,0.5c0.2,0.5,0,1-0.3,1.5c-0.5,0.3-1,0.7-1.6,0.7c-1,0.2-1.8,0.5-2.3,0.7
	c-0.5,0.2-1.2,0.5-1.6,0.7c-0.7,0-1.3,0.2-2,0.2c-0.5,0-1,0.3-1.3,0.7c-0.3,0.5-0.3,0.8-0.3,1.3s-0.5,1.3-1.2,2
	c-0.7,0.7-1.3,0.8-1.6,0.5c-0.2-0.5-0.5-0.7-1-1s-0.8-0.2-1.3,0.3s-1,0.8-1.3,1.3c-0.5,0.5-1,0.5-1.6,0.5c-0.5,0.2-1.2,0.5-1.6,0.7
	c-0.5,0.5-1.3,0.5-2.1,0c-0.7-0.3-1.5-0.5-2.5-0.7c-0.8,0-1.6,0-2.3,0c-0.7,0.2-1.3,0.5-1.5,0.7c-0.3,0.5-0.5,1.2-0.5,1.3
	c-0.5,0.5-0.7,1-1.3,1.3c-0.7,0.5-1.3,0.8-1.8,1.3s-0.5,1-0.5,2l0.5,1c0,0.2,0.5-0.2,1.2-0.3c1-0.3,1.6-0.5,2.1-0.7
	c0.5,0,1.2-0.5,1.8-0.5c0.7-0.2,1.3-0.5,2.1-0.5s1.3,0,2-0.3c0.5,0,1.3-0.3,2.1-0.5c1-0.2,1.6,0,2.1,0c0.2,0.3,0.5,0,0.8-0.5
	c0.2-0.5,0.5-0.8,0.7-1c0.3,0,0.5,0,0.5,0s0,0.2,0.3,0.5c0.3,0.5,0.5,0.8,0.7,1.3c0.5,0.5,0.5,1,0.5,1.5c0.2,0.7,0.2,1.5,0.3,2.1
	c0,0.7-0.3,1.6-0.7,2.6c-0.5,0.8-0.7,1.3-0.8,1.5c0,0,0,0.5,0.2,1.3c0,0.7,0.5,1.3,0.7,2.1c0.5,0.7,0.5,1.3,0.7,2
	c0,0.7,0,1.5-0.3,2.1c-0.2,0.7-0.3,1.5-0.2,2.1c0.2,0.8,0.3,1.5,0.7,2.1c0.2,0.5,0.7,1.2,1.2,1.5c0.5,0.5,0.5,1,0.3,1.5
	c-0.2,0.3,0.2,0.5,0.7,0.7c0.7,0.2,1.2,0.7,1.5,1.3c0.3,0.5,0.5,0.8,0.5,1c0,0,0.2,0.2,0.8,0.5c0.5,0.2,1,0.5,1.5,0.7
	c0.5,0.5,1,0.7,1.3,0.8c0.3,0.5,0.7,0.7,1.3,0.8c0.7,0.3,1.2,0.5,1.3,1.3c0.3,0.7,0.5,1.2,0.8,1.3c0.5,0.5,1,0.7,1.6,0.7
	c0.8,0,1.5,0,2.5,0.3s1.8,0.3,2.5,0s1.6-0.3,2.5-0.3c0.8,0.3,1.6,0.7,2.6,1.3c1.2,0.5,2,0.7,2.6,0.5c0.7-0.2,1.3-0.2,1.5,0.2
	c0.5,0.5,0.7,0.8,0.8,1.3c0.3,0.3,0.7,0.7,1.3,1c0.3,0,0.7,0.3,1.2,0.8c0.3,0.5,0.7,0.5,1.2,0.5c0.5-0.2,1,0,1.5,0.3
	c0.5,0.5,1.3,0.8,2.1,1.2c0.8,0.2,1.8,0.2,2.6,0.2c0.8,0,1.3,0.2,1.8,0.8c0.2,0.7,0.7,1.3,1.3,2.1c0.5,0.5,1.2,1.2,1.6,1.5
	c0.5,0.5,1.2,0.5,1.6,0.3c0.7-0.5,1.3-0.5,1.8,0c0.5,0.2,1.2,0.3,1.8,0.2c0.7-0.2,1.3-0.2,1.6-0.2c0.5,0.2,1.2,0,1.3-0.5
	c0.7-0.2,1.6,0,2.8,0.7c1.3,0.7,2,1.3,2.1,1.3c0-0.2,0.5-0.5,1-1.2c0.7-0.7,1.3-1.2,2.1-1.3c0.7-0.5,1.2-1,1.3-1.5
	c0-0.7,0.3-1.3,0.7-2.3c0.3-1,1-1.6,1.6-2.1s1.3-1.3,1.6-2.3c0.3-1.2,0.7-2.1,1.2-3.3c0.5-1.3,0.5-2.1,0.5-3
	c-0.3-0.7-0.5-1.3-0.5-2.1c-0.2-1-0.5-1.5-1-2.1c-0.7-0.5-1.2-1.3-1.3-2.6c-0.3-1.2,0.2-2.1,0.8-3c0.5-0.7,1-1.3,0.7-2.1l-0.2-0.8
	c0-0.5,0-1,0-1c-1-0.8-2.1-1.3-3.3-1.3c-1,0.2-2,0.2-2.5-0.2c-0.7-0.2-2.6-0.3-5.8-0.5c-3.1,0-5.1-0.2-5.8-0.3
	c-0.8-0.2-1.2-0.5-1.3-1c-0.3-0.5-0.3-1.2,0-1.5c0-0.5,0.2-1,0.2-1.6c0-0.7,0-1.5,0-2c0.2-0.5,0-1.2-0.5-1.6
	c-0.3-0.7-0.5-1.3-0.5-1.8c0-0.7,0-1.3,0-2.1c0.2-0.7,0.2-1.3,0-2.1c0-0.8,0-1.3,0-1.8c0.2-0.3,0.2-0.8,0-1.3c0-0.7,0-1.3-0.2-1.8
	c-0.2-0.5-0.3-1-0.5-1.3c-0.5-0.5-0.3-0.7,0.2-1.2c0.5-0.2,0.8-0.7,0.5-1.3c-0.3-0.5-0.3-1.3-0.2-1.8c0.2-0.7,0.2-1.3,0-2
	c-0.3-0.5-0.3-0.8-0.5-0.8C297.9,188.9,297.7,188.7,296.9,188.2z"/>
<path fill="#CDCCCC" stroke="#FFFFFF" stroke-width="1.1" stroke-linejoin="round" d="M298.2,88.5c-1,0.7-1.5,1.5-2,2.5
	c-0.3,1-0.5,2.3-0.5,4.3c-0.3,1.8-0.7,2.8-1.5,2.8c-0.8-0.5-1.5-1-2.1-1.6c-0.7-0.5-1.3-1.2-2.1-1.6c-0.7-0.5-1.8-1.3-3.3-2.5
	l-0.8-1.2c-0.5-1-0.5-1.3-0.3-1.3c0.7,0.2,1,0.2,1.3-0.3c0.2-0.5,0.2-1,0-1.5c-0.3-0.5-0.5-1.3-0.7-2.1c-0.3-0.7-0.5-1.3-1-1.6
	c-0.5-0.3-0.7-1-1-1.6c-0.3-0.7-0.3-1.3-0.2-1.6c0.2-0.5,0-0.8-0.2-1.3s-0.2-1.2,0-2.1c0-0.7,0.2-1.5,0-2.5c0-1.2,0.2-2,0.5-2.5
	s0.5-1,0.5-1.3c-0.2-0.3-0.3-1-0.5-1.5c-0.3-0.5-0.5-1.3-0.5-1.6c-0.3-0.5-0.7-1.3-1-2.3c-0.2-1-0.7-1.8-1.2-2.5
	c-0.7-0.5-1-1.2-0.8-1.3c0.2-0.3,0.3-1,0.5-2c0-1.3-0.5-2.1-1-2.5c-0.8-0.3-1.3-0.5-2-0.7c-0.5,0-1-0.3-1.5-0.7
	c-0.5-0.5-1.2-0.7-2-1c-0.7-0.3-1.3-0.5-1.3-0.5s-0.2,0.3-0.5,0.7c-0.3,0.5-0.7,0.7-1.3,0.8c-0.5,0.3-1.2,0.5-1.6,0.7
	c-0.5,0.3-1.2,0.5-1.5,0.8c-0.5,0.2-1.3,0.5-1.6,0.5s-0.7,0.5-1.3,1.3c-0.5,0.7-0.8,1.3-0.8,2.1c-0.2,0.8-0.5,1.3-1,1.8
	s-1.2,1-1.5,1.3c-0.7,0.5-1.3,0.7-1.5,0.3c-0.5-0.3-1-0.3-1.5,0c-0.7,0.7-1.2,1.2-1.3,1.5c-0.3,0.5-0.8,0.7-1.5,0.7
	c-0.7,0-1.3,0.2-1.5,0.3c-0.3,0.3-1,0.5-2.1,1.2c-0.7,0.5-1.3,1-1.5,1.5c-0.3,0.5-0.3,0.8-0.5,1.2c-0.2,0.5-0.5,0.5-1.2,0.7
	s-1.2,0.7-1.3,1.3c-0.5,0.7-0.7,1.3-1.3,1.5c-0.7,0.3-0.8,0.2-0.8-0.5s0.2-1.3,0.2-1.8c0.3-0.5,0-1-0.5-1.3
	c-0.3-0.3-0.8-0.3-1.3-0.2c-0.7,0.3-1.3,0.5-1.8,0.8c-0.5,0.2-1,0.7-1.3,1.2c-0.3,0.7-1,1-1.8,1.3c-0.8,0.2-1.5,0.2-2.1-0.3
	c-0.5-0.2-1.2-0.5-1.8-0.7c-0.7-0.3-1.3-0.8-2.1-1.6c-0.7-0.7-1.3-1.3-2.3-2c-0.8-0.5-1.3-0.7-1.3-0.8c-0.2,0-0.5,0.2-1.3,0.3
	c-0.7,0-1.3-0.3-1.2-0.7c0.2-0.7,0.2-1.3,0.2-2.1c0-0.7,0-1.3-0.2-2c-0.2-0.5-0.3-1.2-0.5-1.6c-0.3-0.5-0.7-1.3-1.3-2
	c-0.7-0.7-0.8-1.3-1.3-2c-0.7-0.5-1.3-0.5-2.1-0.3c-0.8,0.5-1.5,0.8-2.1,1.3c-0.7,0.7-1.3,1.3-2.1,1.8c-0.8,0.5-1.5,0.7-2.1,0.5
	c-0.5-0.2-0.7-0.5-0.8-0.8c-0.3-0.5-0.5-0.8-1.2-1.2c-0.5-0.2-0.8,0-1,0.3c-0.3,0.5-0.5,1-0.2,1.6c0.2,0.7-0.2,1.2-0.7,1
	c-0.5,0-1.5,0.2-2.6,0.2c-1.3,0.3-2.6,0.3-4,0.5c-1.3,0-2.8,0.2-4.3,0c-1.3,0-2.1,0-2.8-0.2c-0.7,0-1.2,0-1.6,0
	c-0.5,0.2-1.3,0.5-2.1,0.7c-1,0.2-1.3,0.7-1.6,1.5c-0.2,1-0.2,2.1,0,3.8c0.3,1.3,0.7,2.1,1.8,2.5c1.2,0.3,2.1,0.3,3.6,0.2
	c1.2,0.2,2,0.5,2.5,1.3c0.5,1,0.7,2,0.8,2.6c-0.2,0.7-0.5,1-0.8,1.3c-0.5,0.2-1.3,0-2-0.5c-0.5-0.3-1.3-0.5-2-0.2s-1.3,0.5-1.6,0.7
	c-0.5,0.3-1,0.5-1.8,0.7c-1,0.3-1.8,0.5-2.3,0.7c-0.5,0.5-0.5,1.8-0.5,4.4c0.3,2.5,0.5,4.1,1.2,5.1c0.7,0.8,1.5,1.5,2.3,2.1
	c0.8,0.7,1.5,1.3,2,1.6c0.3,0.5,0.3,0.8,0.3,1.3c-0.2,0.5,0.3,1.3,1,2.5c0.7,1.2,1.3,2.1,1.6,3.3c0.2,1.2,0.2,2,0,3
	c-0.5,0.7-0.7,1.5-0.7,2.5c-0.2,1.2-0.5,3.1-1,6.6s-1,7.1-1.5,11c-0.5,3.8-1,6.4-1.3,8.2c-0.3,1.5-0.5,3.3-1,5.1s-0.7,2.6-0.8,3
	c-0.2,0-0.3-0.2-0.5-0.3c-0.5-0.2-1,0-1.3,0.2c-0.5,0.3-1,0-1.3-0.7c-0.5-0.5-1-0.8-1.5-1s-1.2,0-1.8,0.2c-0.7,0.2-1.5,0.3-2.3,0.5
	s-1.5,0.8-2.1,1.5c-0.5,0.7-0.8,1.2-1.3,1.2c-0.5-0.2-1-0.3-1.6-0.3c-0.7,0.2-1.3,0.3-2,0.7c-0.5,0.3-0.7,0.5-1,0.7
	c-0.3,0-0.8,0.2-1.5,0.7c-1,0.2-1.6,0.3-2.3,0c-0.5-0.2-1.3,0-2.1,0.5c-0.7,0.5-1.3,1.2-2.1,1.8s-1.5,1.2-2.1,1.3
	c-0.7,0.3-1.3,0.5-1.3,1.3c-0.3,0.5-0.5,0.8-1,1.3c-0.5,0.2-1.2,0.5-1.6,1c-0.7,0.5-1.3,0.7-2.1,1.3c-0.7,0.5-1.2,0.8-1.3,1.3
	c0,0.5-0.2,1.3-0.2,1.6c-0.2,0.7-0.2,1.5-0.3,2.5c0,1.3-0.5,2.1-1,3.5c-0.5,1-1,2-1.5,2.8c-0.5,0.7-0.5,1.5,0,2.5s0.7,1.8,0.7,3
	c0,0.8-0.5,1.3-1.3,1.6c-0.8,0.5-1.5,0.8-2.1,1.3c-1,0.5-1.6,1.3-2.1,2.1s-0.8,1.5-0.8,2.5c0,0.8,0,1.2,0,1.3c0,0.2,1,0.3,2.5,1
	c2,0.7,4.1,1.5,7.1,2.6c2.8,0.8,5.4,1.3,7.6,1.8c2.3,0.3,4.8,0.7,7.6,1.3c2.8,0.7,5.8,1.3,9.1,2c3.1,0.7,5.8,1.3,8.2,2.1
	c2,0.8,4.3,1.8,6.7,2.8c2.5,1.3,5.1,2.5,7.6,3.6c2.6,1.3,5.3,2.5,7.7,3.6c2.3,1,4.8,1.8,7.2,2.6c2.1,1,4.1,1.8,6.3,2.3
	c2,0.5,3.8,1.3,5.6,2.6c1.8,1.2,2.8,1.6,3,1.8c-0.2-0.2-0.3-0.3-0.5-1c-0.3-1-0.2-1.5,0.3-2.1c0.5-0.5,1.2-0.8,1.8-1.3
	c0.5-0.3,1-0.7,1.3-1.2c0.2-0.3,0.5-0.8,0.5-1.3c0.3-0.3,0.8-0.5,1.5-0.7c0.8,0,1.5,0,2.5,0c1,0.2,1.6,0.5,2.3,0.7
	c0.8,0.5,1.5,0.5,2.1,0c0.5-0.3,1.2-0.5,1.8-0.7c0.5,0,1.2-0.3,1.3-0.7c0.5-0.3,1-0.8,1.3-1.2c0.5-0.5,1-0.5,1.3-0.3
	c0.5,0.3,0.7,0.5,1.2,1c0.3,0.2,0.7,0.2,1.5-0.5c0.5-0.7,1.2-1.3,1.2-2c0-0.5,0.2-1,0.5-1.5c0.3-0.3,0.7-0.5,1.3-0.7
	c0.5,0,1.2,0,1.8,0c0.5-0.3,1.3-0.5,1.6-0.7c0.7-0.5,1.3-0.5,2.3-0.7c0.8-0.2,1.3-0.5,1.6-0.8c0.3-0.5,0.5-0.8,0.5-1.3
	c-0.2-0.5,0.2-0.5,0.5-0.7c0.5,0,1-0.3,1-0.5c0-0.7-0.2-1.3-0.5-1.8c0-0.7,0-1.2,0.7-1.6c0.5-0.5,1.2-1.2,2.1-1.6
	c0.7-0.5,1.3-1.3,1.5-1.8c0.3-0.7,1-1,2-1.3c1.3-0.2,2.5-0.2,3.8-0.2s2.5,0.2,3.6,0.5c1,0.3,1.8,0.8,2.3,1.6
	c0.5,0.7,1.2,1.3,1.8,1.3c0.5,0.5,1.2,0.7,1.3,1.3c0.5,0.7,0.8,1.3,1.5,1.5c0.7,0.3,1.3,0.8,1.3,1.5c0.5,0.8,1,1.3,1.8,1.6
	c0.7,0.3,1.3,0.3,1.5,0c0.5-0.5,0.7-0.8,1.3-1.3c0.5-0.2,0.8-0.2,1.6,0c0.5,0.5,1,0.5,1,0.5l37.2-1.6c0.2-0.2,0.3-0.5,0.3-1
	c0.3-0.5,0.3-1.2,0.3-1.5c0-0.5,0.2-1.2,0.5-1.6c0.3-0.3,0.5-1,0.7-1.6s0.2-1.3,0.3-2c0-0.5-0.2-1.2-0.3-1.6c-0.5-0.5-0.5-1-0.5-1.3
	c0-0.5,0.5-0.8,0.8-1.3c0.5-0.7,0.5-1.3,0.5-2.1s0.2-1.3,0.5-2.1c0.5-0.5,0.7-0.7,0.7-0.8c0-0.2-0.2-0.5-0.5-1.2
	c-0.2-0.8-0.8-1.5-1.5-2.1c-0.5-0.7-1-1.3-1.3-2.1c0-0.7-0.2-1.3-0.2-1.6c0-0.5,0.3-1,0.7-1.8l0.8-1.2l9.4-21.4
	c1.3-2.8,2.8-6.1,4.4-9.9s3.1-6.9,4.4-9.9l1-2.1c2.6-5.9,3.8-9.4,3.1-10.4c-0.8-0.2-1.5-0.2-2.3-0.2c-0.7,0.2-1.3,0-1.5-0.5
	c-0.5-0.5-1.2-1.2-2-1.8c-1-0.7-1.6-1.2-2.1-1.8c-0.5-0.3-1.3-0.7-2.1-1.3c-0.7-0.5-1.5-0.5-2.6-0.8c-0.8,0-1.6-0.5-2.5-1
	c-0.8-0.7-1.8-1.3-3.1-2.1c-1.2-0.8-2.1-1.3-3-2.1c-0.7-0.5-1.3-1.2-2.1-1.3c-0.7-0.5-1-1-1.3-1.6c-0.2-0.7-0.8-1.5-2.1-2.5
	c-1-1-1.6-1.6-1.8-2.1c-0.2-0.5-0.3-1.2-0.3-1.5c-0.2-0.5-0.5-0.8-0.8-1c-0.5-0.5-0.5-1.3-0.5-2.3c0.2-1,0-2.1-0.2-3.3
	c-0.3-1.2-0.5-1.8-0.5-1.8c-0.3,0-2.5,0-6.6,0.3s-7.1,1-8.4,2.1c-1.3,1.3-2.1,2.6-2.5,4.3c-0.5,1.5-0.5,2.8-0.3,3.5
	c0.3,0.7-0.2,1.3-1.2,2.1c-0.8,0.7-1.8,0.8-2.8,0.7c-0.8-0.3-1.6-0.7-2.3-1.3c-0.7-0.7-1.3-1.2-1.8-1.5c-0.8-0.5-1.3-0.5-2.1-0.5
	C300.2,87.5,299.4,87.8,298.2,88.5z"/>
<path fill="#CDCCCC" stroke="#FFFFFF" stroke-width="1.1" stroke-linejoin="round" d="M310.9,17.4c-0.8,0.3-1.8,0.5-2.6,0.5
	c-0.8-0.2-1.3-0.2-1.5-0.2c0.2,0.2,0.3,0.5,0.5,1.5c0.3,1.2,0.5,2,0.2,2.6c-0.3,0.5-1,1.2-1.8,1.5c-0.8,0.5-1.5,1.2-2.1,1.8
	c-0.5,0.7-1.2,1-2.1,1c-1.2,0-1.6,0.2-2.1,0.5c-0.5,0.3-0.7,0.5-1.2,0.8c-0.5,0.2-1.2,0.5-1.5,1.2c-0.5,0.7-1,1.2-1.5,1.2
	c-0.5,0.2-1.3,0.5-1.8,1c-1,0.5-1.5,0.7-2.1,0.5c-0.7-0.3-1.3-0.3-1.8,0.2s-1.3,0.5-2.5,0.3c-1.2-0.3-2-0.3-2.8,0.2
	c-0.5,0.5-1.2,0.8-1.6,0.8c-0.5,0.2-1,0.5-1.3,1c-0.3,0.7-0.2,1.3,0.2,2.1c0.2,0.7,0,1.3-0.7,1.8c-0.7,0.5-1.5,0.5-2.3,0.3
	c-0.7-0.5-1.3-1-2.1-1.6c-0.7-0.7-1.3-1.3-1.8-1.8s-1.3-0.5-1.6-0.2c-0.5,0.3-1,0.5-1.6,0.3c-0.5-0.2-1-0.2-1.8-0.2
	c-0.7-0.2-1.3,0-2.3,0.2c-0.7,0.3-1.3,0.3-1.5-0.2c-0.3-0.5-0.5-1-1-1.6c-0.5-0.5-1.2-0.7-2-0.7c-0.8,0-1.5,0-2.3,0.3
	c-0.8,0-1.5-0.3-2.1-1c-0.7-0.7-1.2-1-1.3-0.7c-0.3,0.3-0.3,0.7,0,1.2c0.5,0.5,0.7,1.2,1,1.6c0.3,0.5,0.8,1.2,1.3,1.8
	c0.7,0.5,1.6,1.3,2.8,2.1c0.8,0.8,1.3,1.6,1.3,2.3c-0.3,0.7-0.3,1.6-0.3,3c0.3,1.3,0.5,2.1,1,3.1c0.5,0.7,1,1.3,1.3,2.3
	c0.5,1,0.5,1.8,0.5,2.5c-0.2,0.8,0.2,1.3,1,1.6c0.8,0,1.5,0.2,2.5,0.2c0.7,0,1.6,0,2.5,0.2c1,0.2,1.3,0.5,2,1.2l0.3,1
	c0.2,0.2,0.5,0.2,1.3,0.5c0.8,0.3,1.5,0.5,2.1,1.2c0.5,0.5,1,0.5,1.3,0.5c0.5,0.2,1.3,0.5,2,0.7c0.7,0.5,0.8,1.3,0.8,2.5
	c0,1-0.2,1.6-0.5,2.1c0,0.2,0.3,0.7,0.8,1.3c0.5,0.7,1,1.5,1.3,2.5c0.3,1.2,0.5,1.8,0.8,2.3c0.2,0.5,0.3,1.2,0.5,1.8
	c0.3,0.5,0.5,1.2,0.5,1.5c0.2,0.3,0,0.8-0.5,1.3c-0.3,0.7-0.5,1.3-0.5,2.5c0.2,1,0,2-0.2,2.6c0,0.8,0,1.5,0.2,2.1
	c0.2,0.5,0.2,0.8,0.2,1.3c-0.2,0.5-0.2,1,0,1.6c0.5,0.8,0.7,1.3,1.2,1.6c0.3,0.5,0.7,1.2,1,1.8c0.3,0.7,0.5,1.3,0.5,2.1
	c0.3,0.5,0.3,1.2,0,1.5c-0.2,0.3-0.5,0.3-1.2,0.3c-0.3-0.2-0.3,0.5,0.3,1.3l0.5,0.7L287,93c1.5,1.3,2.6,2.1,3.3,2.3
	c0.7,0.5,1.3,1.2,2,1.8c0.7,0.7,1.3,1.3,2.1,1.5c0.8,0,1.3-0.8,1.3-2.6c0.2-2,0.5-3.5,0.7-4.4c0.3-1,1-1.8,2-2.5
	c1-0.7,1.8-1.2,2.5-1.2c0.7-0.2,1.3,0,2.1,0.3c0.5,0.5,1.3,1,2,1.5c0.8,0.7,1.5,1.2,2.3,1.3c1,0.2,2,0,3-0.7c0.8-0.7,1.2-1.3,1-2.1
	c-0.3-0.7-0.2-2,0.2-3.5c0.5-1.6,1.3-3.1,2.5-4.3c1.5-1.3,4.4-2,8.6-2.1c4-0.2,6.3-0.3,6.6-0.3l-0.7-13c0-0.2-0.5-0.2-1.2,0
	c-0.7-0.2-1.3-0.3-2.1-0.8c-0.8-0.5-1.8-1.2-2.6-1.8c-0.7-0.8-1.3-1.6-2-2.3c-0.5-0.5-1-1.2-1.5-1.5c-0.5-0.3-0.7-1.3-0.7-2.8
	c0.3-1.3,0-2.1-0.5-2.3c-0.5,0-1-0.5-1.2-1.2c-0.2-0.7-0.5-1.3-0.8-2.1c-0.5-0.8-0.5-1.5-0.5-2.3c0.2-0.7,0.5-1.3,0.5-2.1
	c0.2-0.8,0.5-1.6,1-3c0.5-1.2,0.7-2.1,0.5-3c-0.2-1,0.2-1.6,0.8-2.3c0.7-0.7,1.3-1.5,1.6-2.3c0.5-0.8,0.5-1.8,0-2.8
	c-0.5-1.2-0.8-2.1-1-3c-0.3-0.8-0.7-1.5-1.5-2.1c-0.7-0.5-1.3-0.8-2.3-1c-1,0-1.2-0.5-0.8-1.3c0.5-0.7,0.5-1.6,0.8-2.6
	s0.3-1.8,0-2.3s-1-1.3-1.6-1.6C312.7,17.2,311.7,17,310.9,17.4z"/>
<path fill="#CDCCCC" stroke="#FFFFFF" stroke-width="1.1" stroke-linejoin="round" d="M454,83.7c-0.8-0.2-1.8-0.5-2.6-0.7
	c-0.8-0.2-1.5-0.5-2.1-0.5c-0.5-0.2-1.3,0-2,0.3c-0.7,0.3-1.2,0.7-1.3,0.8c-0.3,0.3-0.5,0.5-0.7,0.5c-0.5-0.2-1.2-0.3-2.1-0.5
	c-1.2,0-2.5-0.2-4-0.5l-1.3-0.5c-0.7-0.5-1.3-0.7-2.1-0.7c-0.5-0.2-1-0.2-1.6,0c-0.5,0-1.3,0.3-2.3,0.8c-1,0.7-1.6,1.3-2,2.1
	c-0.3,0.7-0.5,1.3-0.5,1.6c0.3,0.5,0.7,1,1,1.6c0.5,0.5,0.5,0.5-0.3,0.2c-0.7-0.2-1.3-0.2-1.3,0.3c-0.2,0.7,0,1,0.2,1.2
	c0,0,0,0.3-0.3,0.8c-0.2,0.5-0.5,0.8-0.5,1.3c0,0.3,0,0.5,0,0.5s-0.2,0-0.7-0.3c-0.5-0.2-0.8,0-1,0.3c-0.3,0.2-0.5,0.5-0.8,0.7
	c-0.3,0.3-0.7,0.5-1.3,0.8c-0.5,0.3-1,0.5-1.3,0.7c-0.2,0-0.5,0.3-1.2,0.7c-0.5,0.5-1.8,0.7-3.6,0.5c-2,0-2.5-1-2-2.8
	c0.3-0.3,0.5-0.5,0.5-0.7c-0.3,0.2-0.8,0.5-1.6,0.7c-1.2,0.5-1.8,0.7-2.5,0.7c-0.5,0.2-1.3,0-2.1-0.3c-0.7-0.5-1.3-1.2-1.3-2.1
	c0-1-0.5-1.3-1-1.3c-0.5-0.2-1-0.5-1-0.8c0-0.5-0.3-1.3-0.8-1.6c-0.3-0.7-0.5-1.3-0.5-1.8c-0.2-0.5-0.3-1.3-0.7-2
	c-0.5-0.7-1.2-1.3-1.8-2.1c-1-0.8-1.6-1.6-2-2.3c-0.5-1.2-0.7-2.1-1.3-3.3c-0.5-1.2-0.5-2.1-0.5-3.1c0.3-0.8,0.2-1.3-0.2-1.8
	c-0.3-0.5-0.7-0.7-1.3-1.2c-0.5-0.3-1.2-1-1.6-1.8s-0.8-1.8-1-2.6c-0.2-0.7-0.3-1.3-0.8-1.6c-0.3-0.5-0.8-0.7-1.3-1
	c-0.5-0.2-1-0.2-1.5-0.2s-1-0.2-1.3-0.5c-0.5-0.3-1-0.7-1.3-1c-0.5-0.3-0.8-0.5-1.3-1c-0.5-0.3-1.2-0.7-2-1.3
	c-0.8-0.5-2.1-0.8-3.5-1c-1.5-0.2-2.3-0.8-2.8-2.1c-0.2-1.3-0.2-2.5,0.5-3.3c0.5-0.8,0.5-1.3,0.7-1.3l-1.2-1.2c-0.2,0-0.3,0-0.8,0
	c-0.5-0.2-1-0.5-1.5-1s-0.8-0.7-1.3-0.7c-0.5,0.3-1.2,0.3-1.6,0.5c-0.5,0.3-1.2,0.5-1.3,0.5c-0.5,0.2-0.7,0.3-1.3,0.8
	c-0.5,0.5-1.2,0.7-1.3,0.5c-0.5-0.3-0.8-0.5-1.5-0.3c-1,0-1.6-0.2-2.3-0.3c-0.7-0.2-1.5,0.2-2.5,1.2c-0.7,0.8-0.7,1.8-0.3,2.6
	c0.7,0.8,1.3,1.3,1.3,2c0.2,0.7,0,1.2-0.5,1.5s-1.2,0.5-2,0.3c-1.2-0.3-2-0.5-2.6-0.7c-0.7-0.2-1.3-0.3-2.1-0.5
	c-0.8-0.3-1.3-0.3-1.3-0.3l-1,0.5c-0.5,0.3-1.3,0.3-2,0.5c-0.7-0.2-1.3-0.5-2-0.8c-0.5-0.3-1.2-0.3-1.6,0c-0.8,0.3-1.3,0.3-1.8,0.3
	c-0.7,0-1,0.3-1.3,1c-0.3,0.5-0.7,1.2-1,1.5c-0.5,0.3-1.3,0.5-2,0.3c-0.7-0.2-1.3-0.2-1.5,0c-0.3,0.5-0.8,0.8-1.5,1.2
	c-0.8,0-1.3,0.5-1.8,0.7c-0.2,0.5-0.8,0.5-1.6,0.3c-1-0.3-1.3-0.3-1.6,0.2c-0.2,0.5-0.7,0.7-1.3,1.3c-0.7,0.5-1,0.7-1.2,1.3
	c0,0.5-0.5,0.8-1.3,1c-0.8,0.3-1.3,0.5-1.8,0.7c-0.5,0.3-0.8,0.2-1.5-0.5c-0.7-0.5-1-0.8-1.2-1l0.8,13.2c0,0,0,0.7,0.3,2
	c0.2,1.2,0.3,2.1,0.2,3.1c-0.2,1.2,0.2,1.8,0.5,2.1c0.5,0.2,0.5,0.5,0.7,1.2c0.2,0.5,0.3,0.8,0.5,1.5c0.2,0.5,0.8,1.2,1.6,2.1
	c1.3,1,2,1.8,2.1,2.5c0.2,0.7,0.7,1.3,1.3,1.6c0.7,0.5,1.3,0.8,2.1,1.3c0.7,0.5,1.6,1.3,2.8,2.1c1.3,0.7,2.3,1.3,3.1,2.1
	c0.8,0.5,1.6,1,2.6,1c0.8,0.2,1.6,0.5,2.5,0.8c1,0.5,1.5,1,2,1.3c0.5,0.5,1.2,1.2,2.1,1.8c1.2,0.7,1.6,1.3,2.1,1.8
	c0.3,0.5,0.8,0.7,1.5,0.5c0.7-0.2,1.6,0,2.3,0.2c0.5,1-0.5,4.4-3.3,10.4l-0.2,1.8c-1.3,3-2.8,6.3-4.6,10c-1.5,3.8-3.1,7.1-4.3,9.9
	l-9.5,21.4c0,0.2-0.2,0.5-0.7,1.2c-0.5,0.8-0.7,1.3-0.7,1.6c0,0.5,0,1.2,0.2,1.8c0.3,0.7,0.7,1.3,1.3,2.1c0.7,0.7,1.3,1.3,1.6,2.1
	c0.2,0.7,0.3,1.3,0.5,1.3c0,0,0.3,0.2,0.5,0.8c0.5,0.5,0.8,1.3,1.3,2.1c0.5,0.7,1.2,1.6,1.3,2.5c0.3,1,0.7,2.1,1.3,3.3
	c0.5,1.2,1,2.1,1.2,3.1c0.2,0.8,0.5,1.6,0.5,2.5c0.2,1,0.5,1.8,0.7,2.8c0.2,0.7,0.5,1.3,1.2,1.3c0.3,0.2,0.8,0.5,1.2,1
	c0.5,0.8,1.3,1.3,2.3,1.6c0.8,0.5,1.5,1.2,2.1,2c0.3,0.8,1,1,1.5,1c0.5-0.2,0.8,0.2,1.3,0.8c0.5,0.5,1,1,1.5,1s1.2,0,1.5,0.2
	c0.5,0.3,1.2,0.5,1.2,0.5l74.9,4.4c0.2,0,0.5-0.5,0.8-1.5c0.5-1,1-2,1.3-2.8c0.3-1.3,0.8-2.1,1.5-3.3c0.7-1,1.3-2,2.1-2.8
	c0.5-0.7,1.2-1.2,1.6-1.3c0.5-0.2,1-0.5,1.3-1.2c0.3-0.7,0.7-1.3,1-2.1c0.2-0.7,0.7-1.3,1.3-2.1c0.5-0.5,1-1.3,1.3-2.3
	c0.2-0.8,0.5-1.8,1-3.1c0.2-1.3,0.2-2.1-0.3-2.8s-1-1.3-1.3-2.1c-0.3-0.7-0.2-1.3,0.3-2c0.5-0.7,0.7-1.5,0.8-2.3
	c0-1.2,0.3-2.1,0.5-3.3c0.3-1,0.8-1.8,1.8-2.1c0.8-0.5,1.8-0.8,3-1.3c0.8-0.5,1.5-1,1.5-1.5c0.3-0.5,0.5-1.2,0.8-1.6
	c0.5-0.5,1.2-1,1.6-1.2c0.5-0.3,0.8-0.7,0.8-1.3c0-0.7,0.2-1.3,0.7-1.3c0.3,0,0.5-0.5,0.5-1s0.2-1,0.5-1.3c0.3-0.3,0.5-0.5,0.3-1.2
	c-0.3-0.3-0.3-0.8-0.3-1.3c0-0.3,0.3-0.7,0.7-0.8c0.5-0.3,0.5-0.5,0.5-1c-0.5-0.5-0.7-1-1.2-1.3c-0.5-0.3-1-0.5-1.5-1
	c-0.7-0.2-1.3-0.3-2.1-0.7c-0.7-0.3-1.2-0.5-1.3-0.3c0-0.2,0-0.5,0-0.7c0.5-0.7,2.1-2.1,5.4-4.6c3.1-2.5,5.4-4,6.4-4.1
	c0.7,0,1.3-0.5,2.1-1.2c0.5-0.8,1.3-1.5,1.8-2.1c0.5-0.5,0.8-1.2,0.8-1.6c0.2-0.7,0.5-1.2,1-1.5s1.2-0.8,1.8-1.5
	c0.5-0.8,0.8-1.6,1.3-2.8c0.2-1,0.5-1.8,1.2-3c0.7-1,1.5-2,2.1-2.8c0.8-1,1.2-1.8,1.3-2.6c0-0.8,0.2-1.3,0.3-1.8
	c0.5-0.5,0.5-0.7,0.5-1.2s0.3-1.2,1-1.8c0.8-0.8,1.3-1.8,1.5-3c0.3-0.8,0.5-1.8,1.2-2.3s1.2-1.3,1.3-2.6c0.2-1,0.2-1.8-0.2-2.3
	c-0.3-0.5-0.3-0.8,0-1.2c0.5-0.5,0.7-1,0.7-1.6c0-1.2,0.2-2.1,0.5-2.8c0.3-1,0.5-1.5,0.5-1.6c-0.2,0-0.5,0.2-1.3,0.3
	c-0.7,0.2-0.8-0.2-0.5-0.5c0.2-0.5,0.2-1.2,0.2-1.6c-0.2-0.5-0.5-0.5-0.5-0.2c-0.3,0.5-0.7,0.7-1.3,0.7c-0.7-0.2-1.2-0.2-1.6,0
	c-0.7,0-1.2-0.2-1.3-0.5c-0.2-0.5-0.5-0.7-0.5-1.2c-0.2-0.3-0.3-0.5-0.7-0.5c-0.3,0-0.8-0.2-1.2-0.5c-0.5-0.3-1-0.3-1.3,0
	c-0.5,0.5-0.7,0.3-0.7-0.3c-0.2-0.5-0.3-0.5-0.7-0.3c-0.5,0.5-0.7,0.5-0.7,0c-0.3-0.5-0.5-0.5-0.7-0.3c-0.5,0.3-0.5,0.3-0.5,0
	c-0.2-0.3-0.3-0.5-0.5-0.5s-0.3,0-0.3-0.5s-0.2-0.7-0.5-0.8c-0.3,0-0.5,0.2-0.7,0.5c-0.2,0.2-0.5,0.3-0.5,0.2
	c-0.3-0.5-0.5-0.5-0.7-0.2c-0.3,0.2-0.3,0.5,0,0.8c0.3,0.3,0.2,0.5-0.3,0.5c-0.5-0.2-1-0.5-1.3-0.7c-0.2-0.5-0.5-0.5-0.7-0.5
	c-0.3,0.2-0.7,0.3-1,0.5c-0.5,0-0.7-0.2-0.8-0.5c-0.5-0.2-0.5-0.3-0.8-0.2c-0.3,0.2-0.5,0.3-0.8,0.5c-0.3,0-0.7,0.2-1.3,0.3
	c-0.5,0-1.2,0-1.5,0.5c-0.3,0.5-0.7,0.5-0.8,0.5c-0.3,0.2-0.7,0.5-1.2,1.2c-0.5,0.7-0.5,1.3-0.5,1.8c0.2,0.5,0.2,1,0,1.3
	c-0.3,0.5-0.5,0.8-1,1.3s-1,1-1,1.6c-0.2,0.3-0.2,0.5,0.2,0.7c0.5-0.2,1.2-0.3,1.3-0.5c0.5-0.3,1-0.3,1.3,0c0,0.2,0,0.5-0.5,0.5
	c-0.5,0.3-0.8,0.5-1,0.8c-0.3,0.3-0.7,0.5-1.2,0.7c-0.5,0-1-0.2-1.3-0.7c-0.5-0.7-0.8-1-1.3-0.8c-0.5,0.2-0.8,0.3-1.3,0.8
	s-1.2,1.2-1.6,2.1c-0.7,0.8-1.3,1.2-2.1,1.3c-0.7,0.2-1.3,0.5-1.8,1.3c-0.5,0.7-1,1.3-1.3,2.1c-0.3,0.7-0.5,1.3-0.8,1.8
	c-0.3,0.5-0.5,1.3-1,2c-0.2,0.7-0.3,1-0.5,1.2c0,0,0-0.5,0-0.7c0.2-0.7,0.2-1.3-0.3-1.8c0-0.5,0-1,0.3-1.5c0.3-0.5,0.5-1,0.7-1.5
	c0-0.5,0.3-1.2,0.8-1.8c0.5-0.8,0.7-1.3,0.7-1.6c0-0.5-0.2-0.5-0.7-0.3c-0.5,0.2-1,0.3-1.3,0.3s-0.7,0.3-1.2,0.7
	c-0.5,0.3-1,0.5-1.3,0.5c-0.5,0.2-0.7,0.3-1.2,0.3c-0.3,0.3-0.7,0.5-0.7,0.7c-0.2,0.5-0.2,0.7-0.2,1.2c0.2,0.3,0,0.5-0.2,0.5
	c-0.5-0.3-0.5-0.7-0.5-1.3c0-0.7-0.2-1.2-0.5-1.3c-0.3-0.5-0.8-0.5-1.3-0.7c-0.3,0-0.8,0.2-1.2,0.5c-0.5,0.5-0.7,0.5-1.2,0.3
	c-0.5,0-0.8,0-1.3,0.3s-0.7,0.5-1,0.5c0-0.2-0.3-0.2-0.5-0.5c-0.2-0.5-0.5-0.7-1-0.7c-0.5-0.3-0.8-0.5-1.2-0.5
	c-0.3,0-0.5,0.2-0.8,0.5c-0.3,0-0.3,0.3-0.3,0.7c0.2,0.3,0,0.5-0.2,0.3c-0.2,0-0.5-0.3-0.8,0c-0.2,0-0.5,0.5-0.5,0.7
	c0,0.5,0.2,0.8,0.5,1.2c0,0.3,0,0.2-0.5-0.3c-0.3-0.5-0.7-0.7-1.3-0.8c-0.2,0-0.3,0.2-0.5,0.5c-0.2,0.5-0.3,0.8-0.3,1.3
	c0,0.7,0,1.2,0,1.6c0.2,0.5,0.5,0.7,0.7,1.2c0.2,0.3,0.5,0.7,0.7,1c0.5,0.2,0.3,0.2,0,0c-0.5-0.3-0.8-0.5-1.3-1
	c-0.3-0.5-0.5-1-0.7-1.6c0-0.7,0-1.3,0.2-1.8c0.2-0.8-0.2-1.3-0.7-1.8v-0.5v-1.6c0.3,0.3,0.8,0.5,1.8,0.8c0.8,0.2,1.5,0.2,2.3-0.5
	c0.5-0.3,1-0.5,1.2-0.8l0.2-0.3c0.2,0,0.5,0.2,0.7,0.3c0.5,0.3,0.7,0.5,1.3,0.8c0.3,0.5,0.8,0.5,1.3,0.5c0.5-0.2,0.7-0.3,0.7-0.7
	c0-0.2,0.5-0.5,1.3-0.3c1-0.2,1.5-0.2,1.8-0.2c0.5-0.2,0.8-0.2,1.3,0c0.5,0,1,0.3,1.5,0.5c0.5,0,0.8-0.2,1.2-0.7
	c0.2-0.5,0.3-0.5,0.5-0.3c0.3,0.3,0.7,0.5,1.2,0.3c0.5-0.5,1.2-1,1.3-1.3c0.5-0.5,0.7-0.5,1.2-0.3c0.2,0.3,0.5,0.5,1,0.5
	c0.3,0,0.8,0,1.5-0.2c0.7-0.2,1.6-0.5,2.8-1.2c1.2-0.5,1.8-1,2.1-1.5c0.5-0.5,0.5-1,0.5-2c0-0.7,0.5-1.2,0.8-1.5
	c0.5-0.3,1-0.8,1-1.3c0.2-0.5,0.3-1,0.7-1.3c0.5-0.3,0.7-0.7,0.7-1.2s0.2-0.8,0.3-1c0.2-0.3,0.5-0.8,0.7-1.6c0.2-1,0.5-1.6,0.7-2.3
	c0.3-0.5,0.3-0.8,0-1.2c-0.2-0.5-0.7-0.5-1.3-0.5C456.1,84,455.1,83.9,454,83.7z"/>
<path fill="#CDCCCC" stroke="#FFFFFF" stroke-width="1.1" stroke-linejoin="round" d="M418.1,30.7c-0.2,0.2-0.3,0.3-0.8,0.8
	c-0.3,0.3-0.7,0.7-0.8,1c-0.2,0.5-0.7,1.3-1.8,2.1c-1,1.3-1.6,2.3-2.3,3.5c-0.5,1.2-1,2-1.6,2.3c-0.5,0.5-0.8,0.8-1,1.6
	c-0.3,0.5-0.5,1.3-1,2.5c-0.5,0.8-1,1.6-1.2,1.8c-0.2,0.3-0.2,0.7-0.2,1.2c-0.3,0.7-0.5,1.3-0.5,2c-0.5,0.5-1,1.2-1.6,1.6
	c-0.7,0.5-1.3,0.8-2.1,1.5c-0.7,0.5-1.3,0.5-2.1,0.5c-0.7-0.2-1.2-0.2-1.5-0.2c-0.2,0-0.5,0-0.8-0.3s-1-0.5-2.1-0.5
	c-1.3,0-2.1-0.2-2.8-0.5c-0.7-0.3-1.5,0-2.5,0.5c-0.8,0.7-1.8,1.2-2.6,1.3c-0.8,0.3-1.8,0.3-3.1,0c-1-0.3-1.6-0.7-2.1-1.3
	c-0.5-0.5-0.5-0.7-0.7-0.7l-1.3-0.5c-0.2,0-0.5,0.5-0.7,1.2c-0.5,1-0.7,2.1-0.5,3.5c0.5,1.3,1.3,2,2.6,2.1c1.5,0.2,2.8,0.5,3.6,1
	c0.8,0.5,1.3,1.2,2,1.3c0.5,0.5,0.8,0.7,1.3,1c0.3,0.3,0.7,0.5,1.3,0.8c0.5,0.5,0.8,0.5,1.3,0.5c0.5,0.2,1.2,0.2,1.5,0.2
	c0.5,0.5,1.2,0.7,1.3,1.2c0.5,0.3,0.5,1,0.8,1.6c0.2,0.8,0.3,1.8,0.8,2.6s1.2,1.5,1.6,1.8c0.7,0.2,1.2,0.5,1.3,1.2
	c0.3,0.3,0.5,0.8,0.2,1.8c-0.2,1,0.2,2.1,0.5,3.1c0.5,1.3,0.8,2.1,1.2,3.1c0.5,0.8,1.2,1.6,2.1,2.5c0.7,0.7,1.3,1.3,1.8,2.1
	s0.5,1.3,0.7,2.1c0,0.5,0.3,1.2,0.7,1.8c0.5,0.5,0.5,1,0.5,1.5c0.2,0.5,0.5,0.8,1.2,0.8c0.5,0.2,0.7,0.5,1,1.5
	c0.2,0.8,0.7,1.5,1.3,2.1c0.8,0.2,1.3,0.3,2.1,0.3c0.5,0,1.3-0.3,2.5-0.8c1-0.5,1.6-0.5,1.6-0.5s0.3-0.5,0.5-1.3
	c0.5-1,0.7-1.6,0.8-2.1s0.7-1.3,1.3-2c0.5-0.7,1.2-1.3,1.5-2c0.5-0.5,0.8-1.2,1.3-1.8c0.3-0.5,0.8-1.2,1.3-1.8
	c0.5-0.5,1.3-1.3,2.1-2c0.8-0.7,1.8-1.2,2.3-1.3c0.5-0.2,1.2-0.5,1.8-0.8c0.5-0.3,0.8-1,1.3-1.8c0.3-0.8,0.7-1.6,1-2.3
	c0.5-0.7,1-1.3,1.6-1.3c0.7-0.3,1.3-0.3,2-0.3c0.5,0,1-0.2,1.5-0.5l0.3-0.5c0-0.2-0.2-0.3-0.5-0.5c-0.3-0.2-0.8-0.3-1.3-0.2
	c-0.3,0.2-0.5,0.2-0.8,0.5c-0.3,0-0.2-0.3,0.5-0.7c0.7-0.5,1.3-1,1.6-1.5c0.5-0.5,1-1.2,1.2-1.5c0.5-0.3,0.5-0.5,0-0.5
	c-0.5-0.2-0.7-0.3-0.8-0.2c-0.5,0,0-0.2,0.5-0.5c0.7-0.5,1.2-0.8,1.3-1.5c0.2-0.7,0.2-1.5,0-2.3c-0.3-0.7-0.5-1.3-1.2-1.8
	c-0.7-0.5-1.3-1-2-1c-0.5,0-1.3-0.2-2.5-0.3c-1.2-0.2-1.8-0.5-2.3-1.3c-0.2-0.7-0.7-1.2-1-1.3c-0.5-0.5-0.8-0.5-1.3-0.5
	c-0.3,0.2-0.5,0.2-0.5-0.3c0-0.3,0.3-0.7,0.5-1.2c0.5-0.3,0.5-0.7,0.2-1c-0.2-0.5-0.3-1-0.5-1.5c0-0.5-0.3-0.8-0.5-1.3
	c0-0.5-0.3-1.2-0.7-1.8c0-0.7-0.3-1.2-0.7-1.5c-0.3-0.3-0.3-0.7-0.3-1c0-0.5-0.2-1.2-0.5-2.1c-0.3-0.7-0.5-1.3-0.8-2.3
	c-0.3-0.8-0.5-1.5-0.5-2.1c0-0.5,0-1.6,0-3.5c0-1.6-0.2-2.1-0.7-1.3c-0.3,0.5-0.7,0.3-0.7-1c-0.2-1.3-0.5-2.3-1-3.1
	c-0.5-0.7-1.3-1.3-2-2c-0.7-0.5-1.2-0.5-1.3-0.2C420.1,28.7,418.1,30.7,418.1,30.7z"/>
<path fill="#CDCCCC" stroke="#FFFFFF" stroke-width="1.1" stroke-linejoin="round" d="M462.4,145c-0.8,0.3-1.8,0-2.6-0.5
	c-0.8-0.5-1.8-0.5-3.3,0.2c-1.3,0.8-2,1.3-2.1,1.3l1.2,0.5c0.7,0.5,1.3,0.5,2.1,0.7c0.5,0.3,1.2,0.5,1.5,1c0.5,0.3,0.7,0.8,1.2,1.3
	c0.2,0.5,0.2,0.7-0.5,1c-0.5,0.2-0.7,0.5-0.7,0.8c0,0.5,0,1,0.3,1.3c0.2,0.5,0,0.8-0.3,1.2c-0.3,0.2-0.5,0.5-0.5,1.3
	c0,0.5-0.3,1-0.5,1c-0.5,0.2-0.5,0.7-0.7,1.3c0,0.7-0.3,1.2-0.8,1.3c-0.5,0.2-1.2,0.5-1.6,1.2c-0.3,0.5-0.5,1.2-0.7,1.6
	c-0.2,0.5-0.7,1.2-1.6,1.5c-1.2,0.5-2.1,0.7-3,1.2c-0.8,0.5-1.3,1.3-1.8,2.1c-0.3,1.3-0.5,2.1-0.5,3.1c-0.2,1.2-0.3,2-0.8,2.6
	s-0.5,1.3-0.3,2c0.5,0.7,0.8,1.3,1.3,2s0.5,1.5,0.3,3c-0.5,1.3-0.7,2.1-1,3.1s-0.7,1.8-1.3,2.3c-0.5,0.7-0.8,1.3-1.3,2.1
	c-0.3,0.7-0.7,1.3-1,2c-0.5,0.7-1,1.2-1.3,1.3c-0.5,0-1,0.5-1.6,1.3c-0.5,0.8-1.3,1.8-2,2.8c-0.8,1.2-1.3,2.1-1.6,3.1s-0.7,2-1.2,3
	s-0.8,1.3-0.8,1.5c-0.2,0-0.2,0.5-0.3,0.8c-0.2,0.5-0.5,1.3-1,1.8s-0.5,1.2-0.5,1.8c0,0.5-0.2,1.3-0.5,1.8c-0.5,0.5-0.7,1-0.8,1.3
	c-0.2,0.5-0.5,1.3-0.8,2.1c-0.5,1.2-1,2.1-1,3.6c-0.2,1.3-0.2,2.5-0.2,3.3c-0.3,0.7-0.5,1.6-0.5,2.6c-0.2,0.8-0.2,1.5,0,2.1
	c0.3,0.5,0.3,0.8,0,1.3c-0.2,0.5-0.2,1,0,1.5c0.3,0.5,0.3,1.3,0.3,2.3c-0.2,1.2-0.2,1.8-0.3,2.5c0.2,0.3,0.3,0.8,0.7,1.5
	c0.3,0.5,0.5,1.3,0,2.5c-0.2,1.2-0.2,1.8,0,2.3c0.3,0.5,0.5,0.8,1.2,1.3c0.5,0,0.7,0.2,0.7,0.2s0.2-0.7,0.5-1.6
	c0.5-1,0.7-1.8,1.2-2.1c0.3-0.5,0.7-0.8,1.3-1.2c0.5-0.2,0.7,0.2,0.5,1.2c-0.3,0.7-0.5,1.5-0.7,2.8c-0.2,0.8,0,1.5,0.3,2.1
	c0.5,0.5,1.3,0.8,2.6,1.3c1.3,0.5,2.5,1,3.6,1.5c1.3,0.5,2,0.5,2.6,0.7c0.5,0,0.7-0.3,1.3-1.3c0.5-0.8,1.3-1.8,2.1-3.1
	c0.8-1.2,1.5-1.3,2.5-1c0.7,0.7,1.3,1.3,1.6,2.1c0.3,1,0.5,1.6,0.7,2.3s0.2,1.3,0.2,1.5c0,0.5,0.2,0.7,0.5,0.8c0.3,0,0.3-0.3,0.5-1
	c0.3-0.5,0.5-0.7,1.2-0.7c0.5,0,1.3-0.2,2.1-0.5c1-0.2,1.8-0.2,2.3-0.2c0.5-0.2,1,0,1.3,0.3c0.5,0.5,1.5,1.2,2.8,1.8
	c1.2,0.5,1.6,0.5,1.6-0.3c-0.3-0.7-0.2-1.3,0.2-1.6c0.5,0,1,0.2,1.6,0.7c0.8,0.5,1.8,0.5,3.1,0.2c1.3-0.5,2.5-0.8,3.6-0.8
	c1.2-0.2,2-0.7,3-1.3c1-0.7,1.6-1.2,2.5-1.3c1-0.2,1.6-0.3,2.5-0.5c0.7-0.5,1-0.5,1.2-0.5s0.3-0.5,0.5-1.2c0.5-0.7,0.2-1.3-0.3-2.1
	c-0.5-0.8-1-1.8-1.2-2.8c-0.2-1-0.2-1.8,0-2.3c0.5-0.5,1.2-1,2.1-1.5c0.7-0.5,0.7-1,0-1.3c-0.8-0.5-0.8-1.2,0-1.6
	c0.7-0.7,0.7-1.3,0-2.1l-1.8-0.5c-0.7-0.3-1.3-0.7-1.8-1.5c-0.5-0.7-0.5-1.3,0-2.1s1-1.3,1.3-2.1c0.3-0.7,0.5-1.3,0.8-2.1
	c0.2-0.8,0.8-1.8,2-2.8c1-0.8,2-1.3,2.8-1.5c0.7-0.3,1.3-0.5,1.3-1.3c0.2-0.5,0.2-0.8,0.2-0.8l-2-0.5c0,0-0.5-0.5-1.2-0.7
	c-0.8-0.5-1.6-0.7-2.5-0.8c-0.7-0.2-1.3-0.5-1.6-1.3c-0.5-0.7-1.2-1.5-1.3-2.1c-0.5-0.5-0.8-1.2-1.3-1.6c-0.3-0.5-0.2-1,0.2-2
	c0.5-0.8,0.3-1.3-0.5-1.8c-0.8-0.3-1.3-0.7-1.5-1.2c0-0.5-0.2-1.3-0.3-2.1s-0.7-1.5-1.5-2c-0.8-0.5-1-1-0.5-1.6
	c0.5-0.8,0.7-1.6,0.7-2.3c0.2-0.7,0.5-1.3,1.2-2.1c0.5-0.5,1-1,1.6-1.3s1.3-0.5,2-0.5c0.3-0.2,0.5-0.5,0.5-1.3
	c0.2-0.7,0.2-1.5,0.3-2.3c0-0.8-0.2-1.5-0.5-2c-0.7-0.5-1.5-0.5-2.3-0.3c-0.8,0.5-1.6,0.7-2.3,1c-0.5,0.2-1.5-0.3-2.3-1.3
	c-0.8-1.2-1.5-2.1-2.3-3.1c-0.7-1-1.5-1.6-2.1-2.1c-0.7-0.3-1-0.5-1.2-0.5c0.2-0.2,0.3-0.3,0.5-0.5c0.3-0.5,0.5-0.7,0.2-1
	c-0.3-0.5-0.7-0.5-1.2-0.5c-0.5-0.2-0.5-0.5-0.8-1c-0.2-0.5,0.3-0.8,0.8-1.3c0.7-0.3,1.2-0.7,1.5-1.3c0.3-0.3,0.3-1,0.5-1.6
	c0-1,0-2,0.5-3c0.2-1.2,0.3-1.8,0.3-2.1c0-0.5,0.3-1,0.5-1.3c0.2-0.5,0.2-1,0-2c-0.2-0.7-0.5-1.5-0.5-2.1c0.3-0.5,0-1.3-0.2-2.1
	c-0.2-0.7-0.3-1.3-0.5-2.1c0-0.7-0.2-1.3-0.7-1.8s-1.2-0.8-2.1-1c-0.8-0.5-1.3-1.2-1.8-1.8C463.8,145,463.2,144.6,462.4,145z"/>
<path fill="#CDCCCC" stroke="#FFFFFF" stroke-width="1.1" stroke-linejoin="round" d="M501.2,100.8c0.3-0.7,0.3-1,0.3-1.3
	c-0.2-0.2-0.5,0-1,0.5s-0.8,0.5-1.2,0.2c-0.5-0.5-1-0.5-1.3,0c-0.7,0.5-1.2,0.8-1.2,1.2s-0.2,0.7-0.3,1.2c-0.5,0.3-0.7,0.3-1.2,0.3
	c-0.2-0.2-0.2-0.5-0.2-0.7c0.2-0.5,0-0.7-0.2-1c-0.3-0.5-0.3-0.8,0.3-1.2c0.2-0.5,0.3-0.7,0.5-1.2c-0.2-0.3-0.3-0.3-0.3-0.5
	c-0.2,0-0.5,0.3-0.8,1c-0.5,0.5-0.7,0.7-1,0.5c-0.3-0.3-0.3-0.5,0-1c0.3-0.3,0.2-0.5-0.3-0.8c-0.3-0.2-0.8-0.2-1,0
	c-0.2,0.2-0.5,0.3-0.7,0.5c-0.5,0.2-0.5,0.2-0.7-0.3c-0.2-0.3-0.3-0.7-0.5-1.3c0-0.3-0.2-0.3-0.5,0c-0.5,0.5-0.7,0.5-1,0
	c-0.2-0.3-0.5-0.3-1-0.3s-0.5-0.3-0.5-0.5c-0.2-0.5-0.5-0.5-0.7-0.5h-0.5c-0.2,0-0.3,0.5-0.5,1.5c-0.3,0.8-0.5,1.8-0.5,2.8
	c-0.2,0.8-0.5,1.3-0.7,1.6c-0.3,0.5-0.3,0.8,0,1.3s0.3,1.3,0.2,2.3c-0.3,1.2-0.7,2.1-1.3,2.8c-0.5,0.5-1,1.3-1.3,2.1
	c0,1-0.5,2-1.3,2.8c-0.7,0.7-1,1.3-1.2,2c0.2,0.3,0,0.7-0.3,1.2c-0.2,0.5-0.3,1-0.3,1.6c-0.3,1-0.5,1.8-1.3,2.6c-0.8,1-1.5,2-2.1,3
	c-0.5,1-1,1.8-1.3,3c-0.3,1-0.5,2-1.2,2.6c-0.7,0.8-1.3,1.3-1.8,1.6c-0.5,0.3-1,0.8-1,1.3s-0.5,1.3-0.8,1.8
	c-0.5,0.5-1.3,1.3-1.8,2.1c-0.8,0.7-1.3,1.2-2.1,1.2c-1.2,0.3-3.1,1.6-6.4,4.1c-3.3,2.5-4.9,4-5.4,4.4c0,0.5,0,0.7,0,0.8
	c0.3-0.2,1-0.7,2.1-1.3c1.3-0.7,2.6-0.7,3.5-0.2c0.7,0.5,1.6,0.5,2.6,0.5c0.8-0.3,1.5-0.2,1.8,0.5c0.3,0.7,1,1.3,1.8,1.8
	c1,0.2,1.6,0.7,2.1,1.2s0.7,1.2,0.7,1.8c0.3,0.7,0.5,1.3,0.5,2.1c0.2,0.8,0.2,1.5,0.2,2.1s0.2,1.3,0.5,2.1c0.2,1,0.2,1.5,0,2
	c-0.3,0.3-0.5,0.7-0.5,1.3c0,0.3,0,1.2-0.3,2.1c-0.3,1-0.5,2.1-0.5,3c0,0.7-0.2,1.3-0.3,1.6c-0.5,0.5-1,1-1.5,1.3
	c-0.5,0.5-1,0.8-0.8,1.3c0.3,0.5,0.5,0.8,0.8,0.8c0.5,0.2,0.7,0.3,1.2,0.7c0.2,0.3,0.2,0.5-0.2,0.8c-0.5,0.3-0.5,0.5-0.5,0.5
	c0,0.2,0.5,0.5,1.2,0.7c0.5,0.5,1.2,1.3,1.8,2.1c1,1.2,1.8,2,2.6,3.1c0.8,1,1.6,1.3,2.1,1.3c0.7-0.5,1.5-0.7,2.3-1
	c1-0.3,1.8-0.3,2.3,0.2s0.7,1.3,0.7,2c-0.2,1-0.3,1.8-0.3,2.6c0,0.7-0.5,1.2-0.7,1.3c-0.5,0-1.2,0-1.8,0.3c-0.7,0.5-1.3,1-1.8,1.3
	c-0.5,0.7-0.8,1.5-1,2.1c0,0.7-0.3,1.5-0.8,2.3c-0.5,0.7-0.5,1.3,0.5,1.5c0.8,0.5,1.3,1.3,1.6,2.1c0,0.8,0.2,1.5,0.3,2.1
	c0.3,0.5,0.7,0.7,1.3,1.2c0.7,0.5,1,1,0.5,1.6c-0.3,1-0.5,1.5,0,2.1c0.5,0.5,0.7,1.2,1.2,1.8c0.3,0.5,0.7,1.3,1.3,2.1
	c0.5,0.7,1.2,1.2,1.8,1.3c0.7,0.3,1.5,0.5,2.3,0.8c0.8,0.5,1.2,0.8,1.3,0.8c0-0.2,0.3-0.5,0.5-1.3c0.2-0.8,0.5-1.8,0.7-2.8
	c0.2-0.8,0.5-1.8,0.5-2.8s0.2-1.8,0.3-2.5c0.2-0.7,0.2-1,0-1.3c-0.2-0.3-0.5-0.5-0.7-1c-0.2-0.3-0.2-0.7-0.2-1.3
	c0.2-0.5,0.2-1.3-0.2-2.5c-0.3-1.2,0-2.3,0.7-3.8c0.7-1.3,1.3-2.6,2.1-4c0.5-1.3,1-2.3,1.2-3.1c0.5-0.7,0.7-1.8,1.2-3.1
	c0.5-1.2,1-2.1,1.8-3c1.2-0.7,2-1.3,3.1-1.3c1.2-0.2,2.1-0.5,2.8-1.2c0.7-0.5,1.3-1,1.8-0.8c0.7,0,1.3-0.3,2.3-1.3
	c0.8-0.8,1.8-1.5,2.5-1.8c0.8-0.5,1.6-1.2,2.3-2c0.8-0.8,1.3-1.5,2-2c0.5-0.3,1.3-0.5,2.1-0.5c0.8-0.2,1.8,0,2.6,0.3
	c1,0.5,1.8,0.5,2.8,0.5s2.1-0.2,3.3-0.3c1,0,1.8-0.5,2.3-1.6c0.5-1.2,0.5-2.1,0.7-3c0.2-1-0.3-1.6-1-2.1c-0.5-0.5-1-1.3-1.3-2.6
	c-0.3-0.8-0.3-2.1,0-3.1c0.3-1,0.8-2.1,1.8-3.1c0.7-1.3,1.2-2.6,1.3-4.6c-0.2-1.6-0.5-3-0.7-4c-0.3-0.7-0.3-1.5,0-2.3s0.3-1.5,0-2
	c-0.3-0.7-0.5-1.3-0.5-2s0.3-1.5,0.8-2.1s1.2-1.3,1.5-1.8c0.5-0.5,0.7-1.3,1-2c0.2-0.7,0.5-1.5,1.2-2.1c1-1,1.8-1.3,3.1-1.6
	c1.2-0.3,2.6-1.3,4.1-2.8c1.5-1.6,2.5-2.8,3-3.1c0.5-0.5,0.7-0.7,1-0.8c-0.3,0-0.5-0.2-1-0.5c-0.5-0.5-0.8-0.7-1.3-0.7
	c-0.3,0-0.5,0.3-0.5,0.7c-0.2,0.5-0.5,0.5-0.8,0.2c-0.5-0.2-0.8-0.2-1.2-0.3c-0.5,0-0.8-0.2-1.5-0.3c-0.5-0.3-1-0.3-1.3-0.3
	c-0.7,0-1-0.3-1.3-0.5c-0.3-0.3-0.7-0.5-1-0.5c-0.5-0.2-1-0.3-1.3-0.7c-0.2-0.5-0.7-0.7-1.3-1.2c-0.8-0.3-1.5-0.7-2.1-1
	c-0.8-0.5-1.6-0.7-2.3-1.2c-0.8-0.3-1.6-0.5-2.5-0.5c-0.7,0.3-1.2,0.5-1.2,1c-0.2,0.5-0.3,0.8-0.3,1c-0.3,0.5-0.7,0.2-0.8-0.2
	c-0.3-0.5-0.5-0.5-0.7-0.2c-0.3,0.3-0.5,0.5-0.7,0.5c-0.5-0.2-0.7-0.2-1-0.3c0-0.2-0.3,0-0.5,0.2c-0.5,0.5-0.8,0.5-1.3,0.7
	c-0.5,0-1,0.3-1.5,0.5c-0.5,0.5-1,0.8-1.2,1.3c-0.2,0.5-0.5,0.7-1,1.2c-0.3,0.2-0.5,0.2-0.5,0c-0.2-0.3-0.3-0.5-0.7-0.3
	c-0.5,0-0.5-0.3-0.3-0.7c0.3-0.5,0.5-1,1.3-1.3c0.7-0.5,1.2-1.2,1.3-1.8c0.2-0.5-0.2-0.7-0.8-0.7c-0.7,0.2-1.3,0.5-1.6,1
	c-0.5,0.5-0.8,1.3-1.3,2.1c-0.3,0.8-0.5,1.5-0.5,2.1c-0.5,0.8-0.8,1.6-1.5,2.3c-0.7,0.7-1.3,1.3-2.1,1.8c-0.5,0.5-1,0.5-1,0.5
	c0-0.2,0.2-0.5,0.5-0.8c0.3-0.5,0.5-0.8,0.7-1.3c0-0.5,0-0.8,0-1.2c0-0.3,0-0.7,0-1.2c0-0.2,0.2-0.7,0.5-1.8c0.5-1,0.7-1.6,0.8-2.1
	c0-0.5,0.3-0.8,0.3-1.3c0.3-0.5,0.7-0.8,1.2-0.7c0.5,0,0.8-0.2,1-0.5c0-0.5,0-1.2,0-1.6c-0.3-0.7-0.7-0.8-0.8-1
	c-0.3,0.2-0.7,0.3-1.3,0.7c-0.3,0.3-0.5,0.8-0.8,1.5c-0.2,0.5-0.3,0.5-0.5,0.3c-0.2-0.5-0.5-0.8-1.2-0.8c-0.5-0.2-0.3-0.2,0.3-0.5
	c0.7-0.5,1.3-0.8,1.5-1.2c0.3-0.2,0.5-0.5,0.5-0.7c0.3-0.5,0.5-0.8,0.7-1.3c0-0.3,0-0.8-0.5-1.3s-1-0.8-1.3-1
	c-0.5-0.2-0.7-0.5-0.5-0.5s0-0.3-0.2-0.5c-0.3-0.3-0.5-0.7-1-1.2c-0.3-0.7-0.5-0.7-0.5-0.5c-0.2,0.3-0.3,0.5-0.5,0.3
	C500.9,101.5,500.9,101.3,501.2,100.8z"/>
<path fill="#CDCCCC" stroke="#FFFFFF" stroke-width="1.1" stroke-linejoin="round" d="M531.7,124.9c-1.3,0.2-2.1,0.7-3,1.5
	c-0.5,0.8-1.2,1.5-1.3,2.3c-0.3,0.7-0.5,1.3-1,2c-0.5,0.5-1,1.2-1.5,1.8c-0.5,0.7-0.8,1.3-0.8,2.1s0.3,1.3,0.5,2
	c0.5,0.5,0.5,1.3,0,2c-0.3,1-0.3,1.8,0,2.3c0.5,1,0.5,2.1,0.7,4c-0.2,2-0.5,3.5-1.3,4.6c-0.8,1.2-1.5,2.1-1.8,3.1
	c-0.3,1.3-0.3,2.1,0,3.3c0.5,1.3,1,2,1.5,2.5s0.8,1.2,0.8,2c-0.2,1-0.3,2-0.7,3.1c-0.5,1.2-1.3,1.6-2.3,1.8
	c-1.3,0.2-2.3,0.3-3.3,0.3s-1.8-0.3-2.6-0.5c-1.2-0.5-2-0.5-2.8-0.5c-1,0.3-1.6,0.5-2.1,0.7c-0.5,0.5-1.3,1.2-2.1,2
	c-0.7,0.8-1.3,1.3-2.3,1.8c-0.7,0.3-1.6,1.2-2.5,2c-1,0.8-1.6,1.3-2.3,1.2c-0.5,0-1.2,0.3-1.8,0.8c-0.7,0.5-1.6,1-2.8,1.2
	c-1.3,0.2-2.1,0.7-3.1,1.3c-1,0.8-1.5,1.8-1.8,3c-0.5,1.3-0.8,2.3-1.2,3.1c-0.3,0.8-0.7,1.8-1.3,3.1c-0.7,1.3-1.3,2.8-2.1,4
	c-0.7,1.3-1,2.6-0.7,3.6c0.2,1.3,0.3,2.1,0.2,2.5c-0.2,0.7-0.2,1,0.2,1.3c0.3,0.3,0.7,0.7,0.8,1c0,0.3,0,0.7-0.2,1.3
	c-0.3,0.7-0.3,1.6-0.3,2.6s-0.2,2-0.5,2.8c-0.3,0.8-0.5,1.8-0.8,2.6c-0.2,0.8-0.5,1.3-0.5,1.5l2,0.3c0,0,0.5,0,1.2,0
	c0.8,0.3,1.3,0.7,1.8,1.3c0.5,0.8,1,1.6,1.3,2.5c0.5,0.8,1.3,1.6,3,2.3c1.6,0.7,2.6,1.2,3.6,1.2c1-0.3,2-0.8,3.1-1.6
	c0.8-1,1.8-1.3,2.8-1.6c0.8,0,1.5,0,2.1,0c0.5,0.2,1.5-0.5,3-1.6c1.6-1.3,2.3-2.6,2.8-4c0.3-1.2,0.7-2,1-2.8c0.2-0.5,0.2-1,0-1.3
	c-0.3-0.5-0.5-1.3-0.7-2.3c0-1.3,0-1.8,0.3-1.8c0.5-0.2,0.7-0.3,1-0.7c0.5-0.3,0.8-0.5,1.3-0.5c0.3,0,1,0,1.6,0.3s1.3,0.5,2.3,0.5
	c0.8,0,1.5,0,2.1,0.2c0.5,0.2,1.2,0.5,1.5,1c0.5,0.5,1,0.7,1.8,0.7c0.7,0,1.3,0,2.1,0c0.7-0.2,1.3-0.7,2.1-1.3c1-0.5,2.1-1,3.3-1.3
	c1.2-0.5,2-0.7,2.5-0.5c0.7,0.2,1.2,0,1.3-0.3c0.5-0.3,0.7-0.8,0.8-1.5c0.3-0.5,0.8-1,1.6-1.3c0.7-0.3,1.3-0.8,2.1-1.6
	c0.5-0.7,1-1.3,1.3-1.3c0.3-0.3,0.5-0.3,0.7-0.3c0-0.2,0.5-0.7,1.3-1.6c0.7-1.2,1.6-1.6,2.3-2c0.7-0.2,1.3-0.5,2.1-0.8
	c0.8-0.5,1.5-1,2.1-1.6c0.5-0.8,1-1.6,1.3-2.3c0.2-0.7,0-1.3-0.5-2c-0.5-0.5-0.5-1-0.5-1.5c0.3-0.5,0.3-0.8-0.2-1.5
	c-0.3-0.5-0.3-1.2-0.3-1.5c0-0.5,0-0.5,0-0.7c0.2,0,0.3-0.5,0.5-1.2c0.3-0.5,0.7-1.3,0.8-2c0.5-0.8,0.8-1.6,1.3-2.3s0.5-1.3,0.2-2
	s-0.8-1.3-1.3-1.5c-0.7-0.5-1.3-1.2-1.6-1.5c-0.5-0.5-0.7-1.3-0.7-2.1c0-1.2,0-2-0.2-2.6c-0.2-0.7-0.5-1.6-0.7-2.8
	c-0.3-1.3-0.5-2.6-0.5-4.1c0.2-1.3,0-2.5-0.5-3.1c-0.5-0.5-0.8-1.3-1-2.5s-0.5-2.1-0.5-2.8c-0.3-0.7-0.5-1.5-0.8-2.6
	c-0.3-1.2-0.2-2.1,0.3-3.3c0.5-1.3,0.7-2.1,0.8-2.5c-0.2-0.7-0.2-1.3-0.5-2.3c-0.5-1.2-1-2.1-1.3-3.1c-0.5-1-1-2-1.3-3
	c-0.3-1.3-0.5-2.1-0.3-3c0.3-0.8,0.5-1.5,1-2.1c0.3-0.5,0.5-1,0.7-1.3c0-0.5,0-0.7,0.2-0.7c-0.2,0-0.2-0.3-0.5-0.5
	c-0.5-0.3-0.8-0.3-1.3-0.3s-0.8,0-1.2,0c-0.5-0.3-1.2-0.5-1.5-1c-0.7-0.2-1-0.3-1.2-0.5c-0.2,0.2-0.3,0.3-0.8,0.8s-1.3,1.6-2.8,3.3
	C534.3,123.4,532.8,124.4,531.7,124.9z"/>
<path fill="#CDCCCC" stroke="#FFFFFF" stroke-width="1.1" stroke-linejoin="round" d="M573.2,127c-0.5-0.5-1.5-1.2-2.6-1.8
	c-1-0.5-2-1.2-2.8-1.5c-0.8-0.5-2-1.2-3.1-2c-1.3-0.7-2.3-1.3-3.1-2c-1.2-0.5-2.1-0.8-3.5-1.2c-1.5-0.2-2.6-0.2-3.6-0.2
	c-0.8,0-1.6,0.2-2.5,0.3c-0.8,0.2-1.8,0.2-2.8,0.2c-0.8,0.2-1.8,0.2-2.5,0c-0.7-0.2-1,0-1.3,0.5l-0.3,0.5c-0.2,0.3-0.2,0.5-0.3,0.8
	c-0.3,0.3-0.5,0.8-0.7,1.5c-0.3,0.5-0.5,1.3-0.8,2.1c-0.2,0.7-0.2,1.5,0.2,2.8c0.5,1.2,0.8,2.1,1.3,3.1c0.5,0.8,1,1.8,1.3,3.1
	c0.5,0.7,0.5,1.5,0.7,2.1c-0.2,0.5-0.5,1.3-0.8,2.5c-0.5,1.3-0.7,2.3-0.3,3.3c0.3,1.3,0.5,2.1,0.7,2.8c0.3,0.7,0.5,1.8,0.7,2.6
	c0,1.3,0.5,2.1,1,2.6c0.3,0.7,0.5,1.5,0.5,3.1c0,1.3,0.2,2.8,0.3,4c0.5,1.3,0.7,2.1,0.7,3c0.2,0.7,0.3,1.5,0.2,2.5
	c0.2,0.8,0.3,1.5,0.7,2.1c0.5,0.5,1,1,1.6,1.3c0.7,0.5,1.3,1,1.5,1.5c0.3,0.5,0.2,1.3-0.3,2.1c-0.3,0.8-0.8,1.5-1.3,2.1
	c-0.2,1-0.5,1.6-0.7,2.1c-0.2,0.7-0.5,1-0.5,1.2c0,0,0.7,0,1.8,0c1,0,2.1,0,3.1,0.2c1,0.3,1.8,0.3,2.5,0c0.7-0.2,1.8-0.2,3.1-0.2
	c1.2,0.2,2.1,0.5,2.5,1c0.5,0.5,1.2,1.2,1.8,1.3c0.7,0.5,1.3,1,1.6,1.3c0.3,0.5,0.8,1,1.5,1.5c0.5,0.7,1.3,1.2,1.6,1.3
	c0.5,0,1-0.2,1.3-0.5c0.5-0.3,1.2-0.8,1.8-1.2c0.7-0.5,1-0.5,1-0.7c0.2,0,0.5-0.5,0.8-1.3c0.5-0.7,0.8-1.3,1-2
	c0.3-0.5,0.2-0.8-0.3-1.3c-0.5-0.3-0.7-0.8-0.8-1.3c-0.2-0.3-0.5-0.8-0.7-1.5c-0.2-0.7-0.2-1.3,0-1.6c0.5-0.5,0.7-1.3,1-2
	c0.3-1,0.5-1.8,0.8-2.6s0.3-1.3,0.3-1.3s0-0.5,0-1s0.3-1.3,0.7-2c0.5-0.7,1.2-1.2,1.6-1c0.5,0.2,1.3-0.3,2.1-1.2
	c0.7-0.8,1.3-1.6,1.5-2.6c0.5-0.8,1-2,1.5-3s1.3-2.1,2.1-3.6c1-1.3,1.6-2.3,2.5-2.8c0.7-0.5,1.3-0.8,2.5-1.2c1-0.5,1.5-0.5,1.6-0.5
	c0,0-0.2-0.3-0.5-0.7c-0.3-0.5-0.7-0.8-1.3-1c-0.7-0.3-1.3-0.5-2.1-0.7c-0.7-0.5-1.2-1-1.3-1.3c-0.5-0.7-1-1.3-1.3-1.5
	c-0.5-0.5-1.3-1.2-2.1-2c-0.7-1-1.3-1.6-2.1-2.3c-0.5-1-1.3-1.8-2-2.5c-1-0.8-1.8-1.5-2.8-2.1c-1-0.7-1.8-1.3-2.3-1.8
	C574.1,128.2,573.7,127.7,573.2,127z"/>
<path fill="#CDCCCC" stroke="#FFFFFF" stroke-width="1.1" stroke-linejoin="round" d="M609.1,149.6c-0.5-0.2-1-0.2-1.3,0
	c-0.5,0.2-1.2,0.2-2,0.2c-0.7-0.2-1.3-0.2-2.1-0.3h-1.2c-2.1-0.2-3.5-0.5-4.1-1.2c-0.5-0.5-1-0.8-1.5-0.8c-0.5-0.2-1.2-0.5-2.1-0.5
	c-0.8-0.2-1.3-0.5-1.8-1.2c-0.2-0.5-0.5-0.8-0.5-1c0,0.2-0.7,0.3-1.5,0.5c-1,0.3-2,0.7-2.6,1c-0.7,0.5-1.5,1.6-2.5,3
	c-0.7,1.3-1.5,2.5-2.1,3.6c-0.7,1-1.2,2-1.5,3s-0.8,2-1.6,2.6c-0.7,0.8-1.3,1.2-2,1.2c-0.5-0.2-1.2,0.3-1.8,1
	c-0.5,0.7-0.7,1.3-0.7,2.1c0.2,0.5,0.2,0.8,0.3,0.8c0.2,0,0.5,0.3,1.3,0.7c0.8,0.3,1.8,0.5,2.8,0.7s1.8,0,2.5-0.5
	c0.7-0.5,1.3-0.8,1.8-1c0.5-0.5,1-0.7,1.3-1.3c0.3-0.5,0.8-1,1.8-1.3c1.2-0.5,1.8-0.5,2.1-0.7c0.5,0.2,1.2,0.2,1.8,0
	c0.7,0,1.2,0.2,1,0.8c-0.2,0.7-0.7,1.3-1.3,2.1c-0.7,0.7-1.2,1.3-1.3,2c-0.3,0.7-0.5,1-0.7,1.3c-0.3,0.2-0.5,0.5-0.5,0.8
	s0.3,0.7,0.7,1c0.7,0.5,1.3,0.7,2,1.2c0.5,0.3,1.3,0.3,2.5,0c1-0.5,1.6-0.5,2.3,0c0.5,0.3,1.2,0.8,1.3,1.8c0.3,0.7,0.7,1,1.5,1
	c0.7-0.5,1-1.2,1.2-2s0.5-1.3,0.7-1.8c0.2-0.3,0.3-0.8,0.3-1.6s0.2-1.5,0.5-2c0.3-0.3,0.8-0.3,1.6,0.3c0.7,0.5,1.5,0.8,2.8,1.3
	c1.2,0.3,2.1,0.3,3.1,0.5c0.8,0,1.8,0,2.8,0c1,0.2,2.1,0.3,3.1,0.7c1,0.5,2,0.7,2.6,0.8c0.7,0,1,0,1.2,0l-0.2-0.7
	c-0.2-0.5-0.3-1-0.5-1.8c-0.3-0.7-0.5-1.5-0.5-2.3c-0.3-1-0.5-1.8-0.5-3c-0.2-1-0.5-2.1-0.8-3.5c-0.3-1-0.7-2.1-1.3-3.3
	c-0.5-1-1.2-1.8-1.8-2.3c-0.7-0.5-1.5-0.7-2.3-0.8C610.5,149.9,609.7,149.7,609.1,149.6z"/>
<path fill="#CDCCCC" stroke="#FFFFFF" stroke-width="1.1" stroke-linejoin="round" d="M600.7,169.8c-0.2,0.8-0.5,1.5-1.3,1.8
	c-0.5,0.2-1-0.3-1.3-1c-0.5-0.8-0.7-1.3-1.3-1.8c-0.7-0.5-1.5-0.5-2.3,0c-1.2,0.3-2.1,0.3-2.6,0.2c-0.7-0.5-1.3-0.7-1.8-1.2
	s-0.7-0.7-0.7-1c0-0.5,0.3-0.7,0.5-0.8c0.2-0.5,0.5-0.7,0.7-1.3c0.2-0.7,0.5-1.3,1.2-2.1c0.7-0.7,1.2-1.3,1.3-2s-0.3-1-1-1
	c-0.8,0.2-1.3,0.3-1.8,0.2c-0.3,0-1,0.2-2.1,0.7c-1,0.3-1.5,0.8-2,1.3c-0.2,0.5-0.5,0.8-1.2,1.2c-0.7,0.3-1.3,0.5-2,1.2
	c-0.5,0.5-1.3,0.7-2.3,0.5c-1.2-0.3-2-0.5-3-0.8c-0.8-0.5-1.3-0.5-1.3-0.5c-0.2,0-0.3,0.5-0.5,1.3s-0.5,1.6-0.7,2.5
	c-0.5,0.8-0.7,1.5-1.2,2c-0.2,0.5-0.2,1.2,0,1.6c0.5,0.7,0.7,1.3,0.7,1.6c0.3,0.5,0.5,1,1,1.3c0.3,0.5,0.5,0.8,0.2,1.3
	c-0.2,0.5-0.5,1.2-0.8,2.1c-0.5,0.7-0.8,1.3-1,1.3c0.2,0.2,0.5,0.3,0.5,1c0.5,0.5,0.8,0.8,1.5,1.2c0.7,0,1.3,0,1.8,0
	c0.3-0.2,0.5,0.2,0.7,0.5c0.3,0.5,0.7,0.5,1.3,0.2c0.7-0.3,1.6-0.5,2.3-0.5s1.3-0.5,2.5-1.2c0.8-0.7,1.6-1,2.1-1.3
	c0.7-0.3,1.2-0.7,1.3-1.2c0.5-0.5,0.7-0.7,1-0.8c0.3,0,0.7,0,1.3-0.2c0.5-0.2,1.2,0,1.8,0.3c0.5,0.5,0.8,0.7,1.3,1
	c0.2,0.2,0.2,0.5-0.2,0.8c-0.3,0.5-0.5,0.5-0.7,0.5c-0.3,0.2-0.5,0.7-0.5,1.3c-0.3,1-0.5,1.8-1,2.6c-0.5,0.7-0.5,1.2,0.2,1.3
	c0.5,0.2,1,0.7,1.2,1.5c0.3,0.8,0.7,1.5,1.5,2.1c0.8,0.5,1.6,0.3,2.3-0.5c0.8-0.8,1.5-1.5,2.1-2.3c0.5-0.7,1.2-1.3,1.5-1.2
	c0.5,0.2,0.7,0,1.2-0.3s1.2-0.5,2.1-0.5c0.8,0,1.8,0.2,2.5,0.5c0.5,0.2,1.3,0.2,1.8-0.3c0.7-0.3,1.3-0.8,2.1-1
	c0.8-0.3,1.5-0.8,2.1-1.8c0.5-1,1.3-1.6,2.1-1.8c1,0,1.8,0.2,2.5,0.7c1,0.5,1.6,1,2.5,1.2c0.5,0.5,1,0.5,1,0.7
	c0-0.2,0.2-0.3,0.3-0.7c0-0.5,0-1.3,0-2.5c0-1.3,0-2.5-0.3-3.5c-0.2-1.2-0.5-2-0.7-2.6c-0.2-0.7-0.2-1.5-0.3-2.5
	c-0.2-0.8-0.3-1.3-0.3-1.3c-0.2,0-0.3,0-1-0.2c-0.8-0.2-1.6-0.3-2.8-0.8c-1.3-0.3-2.1-0.5-3.1-0.7c-1,0-2,0-3,0c-0.8,0-2,0-3.1-0.3
	c-1.3-0.5-2.1-0.8-3-1.3c-0.7-0.7-1.3-0.7-1.5-0.3c-0.3,0.5-0.5,1.2-0.5,1.8c0,1-0.2,1.5-0.5,1.8C601,168.2,600.7,169,600.7,169.8z"
	/>
<path fill="#CDCCCC" stroke="#FFFFFF" stroke-width="1.1" stroke-linejoin="round" d="M592.6,176.4c-0.7-0.3-1.3-0.5-1.8-0.5
	c-0.5,0.2-0.8,0.5-1.3,0.5c-0.3,0-0.5,0.2-0.8,0.7c-0.5,0.5-0.8,0.8-1.5,1.2c-0.5,0.3-1.3,0.7-2.1,1.3c-1.2,0.7-1.8,1.2-2.5,1.2
	c-0.7,0-1.5,0.2-2.1,0.5c-0.7,0.3-1.3,0.3-1.3,0c-0.3-0.5-0.5-0.7-0.8-0.5c-0.5,0-1,0-1.8,0c-0.7-0.5-1.2-0.7-1.3-1.2
	c-0.3-0.7-0.5-1-0.5-1s-0.5,0.2-1.2,0.5c-0.7,0.5-1.2,0.8-1.5,1.3c-0.5,0.3-1,0.5-1.3,0.3c-0.5,0-1-0.3-1.6-1
	c-0.7-0.7-1.3-1.3-1.6-1.6c-0.5-0.5-0.8-0.8-1.5-1.2c-0.7-0.5-1.3-1.2-2-1.6c-0.5-0.5-1.3-0.8-2.5-0.8c-1.2-0.2-2.1,0-3,0.2
	c-0.7,0.3-1.5,0.3-2.5,0c-1.2-0.2-2.1-0.3-3.1-0.3s-1.5,0-1.8,0c0.3,0.2,0,0.3,0,0.7c0,0.7,0,1,0.3,1.5s0.5,1.2,0.2,1.6
	c0,0.5,0,1,0.5,1.5c0.3,0.5,0.5,1.2,0.3,2.1c-0.3,0.7-0.7,1.3-1.3,2.1c-0.5,0.7-1.3,1.3-2.1,1.5c-0.7,0.5-1.3,0.5-2.1,0.8
	c-0.7,0.3-1.5,1-2.3,2c-0.8,1.2-1.3,1.6-1.3,1.8c0,0,0.5,0.2,1.6,0.7c0.8,0.5,1.6,1,2.1,1.5c0.5,0.7,0.7,1.3,0.8,2.1
	c0.2,0.8,0.3,1.3,0.8,1.6c0.5,0.5,0.8,1.2,1.2,1.3c0.2,0.5,0.2,1.2,0,1.8c-0.2,0.7-0.3,1.2-0.3,1.2c0.5,0.3,1,0.5,1.6,0.8
	c0.5,0.3,1.2,0.3,1.6-0.5c0.5-0.5,1.2-1.2,1.6-1.6c0.5-0.5,0.5-1.3,0.8-2.1c0-0.8,0.3-1.3,0.8-1.3s1.2,0,1.8,0
	c0.5,0,1.3-0.5,1.6-1.3c0.5-1,1-1.3,1.5-1.5s1.2-0.3,1.3-0.8c0.5-0.5,1-0.8,1.3-1.3c0.5-0.3,1.2-0.5,1.5-0.5c0.7,0,1.2,0,1.5,0
	s0.8,0.3,1.3,0.8c0.3,0.5,0.7,0.8,1.3,0.8c0.5,0.2,0.8,0.5,1.2,0.7c0.5,0.5,1.2,0.8,1.8,0.8c0.8,0.5,1.3,0.8,1.6,1.5
	c0.5,0.5,1,0.5,1.3,0c0.5-0.7,1-0.5,1.2,0.2c0.3,0.7,0.7,1.2,1.3,1.2c0.3,0.2,0.7,0.5,0.8,1.3c0.3,0.7,0.5,1.2,0.5,1.3
	c0.2,0,0.5-0.2,1.3-0.5c0.8-0.2,1.8-0.3,2.5-0.8c0.7-0.3,1.3-0.8,1.5-1.6c0.2-0.5,0.5-1,0.8-0.8c0.2,0.2,0.5,0.3,1,0.5
	c0.2,0.3,0.7,0.5,1.3,0.3c0.3,0.2,0.8,0.3,1.3,0.8c0.7,0.5,1.2,0.8,1.3,1.3c0.5,0.3,0.7,0.7,1,1.3c0.3,0.7,0.8,1,1.3,1.3
	c0.8,0.3,1.8,0.5,2.6,0.5c1,0,2,0,3.1,0c1-0.2,1.6-0.3,2.1-0.5c0.5-0.3,1.2-0.5,1.5-0.5c0.7-0.2,1.2-0.5,1.3-0.7
	c0.3-0.5,0.8-1.2,1.5-1.3c0.8-0.5,1.8-1,3.1-1c1.2-0.2,2.1-0.3,3.1-0.5c0.7-0.3,1.5-0.2,2.1,0.2c0.7,0.2,1.3,0.5,2.3,0.5
	c0.8,0.2,1.3,0.2,1.5,0.2l0.2-1.2c0.2-0.7,0.5-1.3,0.8-1.6c0.3-0.7,0.5-1.3,0.7-2.3c0.3-0.8,0.7-2,1.2-3.1c0.3-1.3,0.5-2.5,0.7-3.6
	c0-1.3,0.3-2.3,0.5-3.1c0.2-0.7,0.2-1,0.2-1.2s-0.5-0.3-1-0.5c-0.8-0.5-1.5-0.8-2.5-1.3c-0.7-0.5-1.5-0.7-2.5-0.5
	c-0.7,0.2-1.3,0.7-2.1,1.6c-0.7,1.2-1.3,1.6-2.1,1.8c-1,0.3-1.6,0.7-2.3,1.2c-0.5,0.5-1.2,0.5-1.8,0.3c-0.7-0.5-1.6-0.5-2.5-0.5
	c-1,0.2-1.6,0.3-2.1,0.5c-0.3,0.3-0.7,0.3-1,0.3c-0.5-0.2-1,0.5-1.6,1.2c-0.7,0.7-1.3,1.5-2.1,2.3c-0.7,0.7-1.3,1-2.3,0.5
	c-0.7-0.5-1.3-1.3-1.3-2.1c-0.3-0.8-0.7-1.5-1.2-1.5c-0.5-0.3-0.7-0.7-0.3-1.3c0.5-0.8,0.7-1.6,1-2.6c0-0.8,0.3-1.3,0.5-1.3
	c0.3,0,0.5-0.2,0.7-0.5c0.3-0.3,0.3-0.7,0.2-1C593.6,177.1,593.2,176.7,592.6,176.4z"/>
<path fill="#CDCCCC" stroke="#FFFFFF" stroke-width="1.1" stroke-linejoin="round" d="M610,205.2c0.7-0.8,1.5-1.6,2.3-2.5
	c0.7-0.7,1.5-1.3,2.1-2.1c0.5-0.7,0.8-1.6,1.3-2.3s0.5-1,0.5-1c-0.2,0-0.7-0.2-1.5-0.3c-0.8-0.2-1.6-0.5-2.3-0.5
	c-0.5-0.3-1.3-0.5-2.1-0.2c-0.8,0.2-2,0.3-3.1,0.5c-1.3,0.2-2.1,0.5-3.1,0.8c-0.7,0.5-1.3,1-1.5,1.3c-0.2,0.3-0.7,0.7-1.3,0.7
	c-0.7,0-1.2,0.3-1.5,0.5c-0.7,0.3-1.3,0.5-2.3,0.7c-1,0-2.1,0-3.1,0c-0.8-0.2-1.8-0.5-2.5-0.7c-0.7-0.2-1.2-0.7-1.5-1.3
	c-0.3-0.5-0.5-0.8-1-1.2c-0.3-0.5-0.7-0.7-1.3-1.3c-0.5-0.5-1-0.7-1.3-0.7c-0.5,0-1,0-1.3-0.5c-0.3-0.2-0.7-0.5-1-0.7
	c-0.3,0-0.5,0.5-0.8,1.2c-0.3,0.7-0.8,1.3-1.5,1.5c-0.8,0.5-1.5,0.7-2.5,0.8c-0.7,0.2-1.2,0.5-1.3,0.5c0.2,0,0.2,0.5,0.3,1.5
	c0,1,0.5,1.3,1,1.5c0.5,0.2,0.8,0.5,1.2,0.7l0.3,0.7l1,0.5c0.5,0.2,1.2,0.5,1.6,0.8c0.5,0.5,1.2,0.7,1.5,1c0.7,0.3,1.3,0.5,2,0.5
	c0.7,0.2,1.3,0.5,2,0.8c0.8,0.5,1.6,1.2,2.8,1.8c1.2,0.7,1.6,1.3,2,2c0.2,0.5,0.5,1,1,1.5s1.2,0.7,1.6,0.8c0.5,0.2,1,0.5,1.3,1.3
	c0.3,0.7,0.7,1.3,1.3,1.8c0.5,0.5,0.7,0.5,0.7,0.5l0.7-0.5c0.5-0.3,0.5-0.5,0.5-1c0.2-0.5,0.7-1.2,1.8-2.1c0.8-0.7,1.5-1.5,2.1-2.1
	c0.5-0.5,1-1.3,1.3-1.6c0.5-0.5,0.5-1.3,0.5-1.8c0.2-0.5,0.3-0.8,0.8-0.7C608.7,206.5,609.4,206.2,610,205.2z"/>
<path fill="#CDCCCC" stroke="#FFFFFF" stroke-width="1.1" stroke-linejoin="round" d="M594.9,212c-0.5-0.5-0.7-1-1-1.5
	c-0.2-0.5-0.8-1.3-1.8-2c-1.2-0.7-2.1-1.3-2.8-1.8s-1.3-0.7-2.1-0.7c-0.7-0.3-1.3-0.3-1.8-0.5c-0.5-0.5-1-0.5-1.6-1.2
	c-0.5-0.3-1.2-0.5-1.6-0.8c-0.5-0.3-0.8-0.5-0.8-0.5c0,0.2,0,0.5-0.2,1.3c0.2,0.8,0.3,1.6,0.8,2.5c0.5,0.7,1,1.5,1.3,2.3
	c0.5,0.7,0.5,1.6,0.5,2.8c-0.2,1.3-0.3,2.1-0.5,2.6c0,0.5-0.2,1.2-0.7,2c-0.3,0.7-0.7,1.2-1.2,1.2c-0.3,0-0.8,0-1.3-0.2
	c-0.5,0-1,0.2-1.5,0.7c-0.3,0.7-0.2,1.5,0.5,2.6c0.5,0.8,1.2,1.6,1.3,2.6c0.5,0.8,0.5,1.5,0.5,2c0.2,0.5,0.5,1.2,1.3,1.6
	c0.7,0.3,1.3,0.5,2.1,0.7c0.7,0.2,1.3,0.2,2,0.3c0.5,0.3,0.5,0.5,0.7,0.5c-0.2-0.2-0.2-0.5,0-0.8c0-0.5,0.2-1.2,0.8-1.6
	c0.5-0.5,0.5-0.5,0.5-0.2c-0.2,0.5-0.2,0.8,0,1.3c0.5,0.2,0.5-0.2,1.2-0.7c0.5-0.8,0.8-1.3,1.2-1.6c0.2-0.2,0.3-0.5,0.5-1.2
	c0-0.5,0.3-1.2,0.7-1.8c0.5-0.5,1-0.8,1.3-1.3c0.5-0.3,1.2-0.7,1.6-1.3c0.7-0.5,1.6-1.2,2.3-1.5c0.8-0.3,1.5-0.7,2.1-1
	c0.5-0.2,0.8-0.3,1-0.5c0,0-0.3-0.2-0.8-0.5c-0.5-0.5-1-1.3-1.3-2s-0.7-1.2-1.3-1.3C595.9,212.6,595.4,212.3,594.9,212z"/>
<path fill="#CDCCCC" stroke="#FFFFFF" stroke-width="1.1" stroke-linejoin="round" d="M566.6,190.1c-0.5,0-0.8,0-1.5,0
	c-0.5,0-1,0.2-1.5,0.5c-0.5,0.3-0.8,0.7-1.3,1.3c-0.5,0.5-1.2,0.7-1.5,0.7c-0.5,0.2-1,0.7-1.5,1.5c-0.5,1-1.2,1.3-1.6,1.3
	c-0.7,0-1.3,0-1.8,0s-0.8,0.5-1,1.3c-0.2,0.8-0.3,1.6-0.8,2.1s-1,1.2-1.5,1.6c-0.5,0.5-1.3,0.8-1.6,0.5c-0.5-0.2-1.2-0.5-1.6-0.7
	c0-0.2,0.2-0.5,0.3-1.3c0-0.7,0-1.3,0-1.8c-0.3-0.2-0.7-0.5-1.2-1.2c-0.5-0.5-0.8-1-1-1.6c0-0.7-0.2-1.3-0.5-2.1
	c-0.5-0.5-1.5-1.3-2.1-1.8c-1.2-0.3-1.5-0.5-1.6-0.5c0,0-0.3,0.2-0.7,0.3c-0.5,0.2-0.8,0.7-1.3,1.3c-0.7,0.7-1.3,1.3-2.1,1.5
	c-0.7,0.5-1.3,0.8-1.5,1.3c-0.3,0.5-0.5,1.2-1,1.5c-0.3,0.3-0.7,0.3-1.3,0.2c-0.5-0.2-1.5,0-2.6,0.5c-1.3,0.5-2.3,1.2-3.3,1.5
	c-0.7,0.5-1.5,1-2.1,1.2c-0.7,0-1.5,0.2-2.1,0.2c-0.7-0.2-1.3-0.3-1.8-0.8s-0.8-0.7-1.3-0.8c-0.7,0-1.3-0.3-2.1,0
	c-1-0.3-1.6-0.5-2.3-0.5c-0.7-0.3-1.3-0.5-1.6-0.5c-0.5,0.2-0.7,0.5-1.2,0.7c-0.5,0.5-0.7,0.5-1.2,0.5c-0.3,0-0.3,0.7-0.3,2
	c0.3,1.2,0.5,2,0.7,2.1c0.2,0.5,0.2,1,0,1.5c-0.3,0.7-0.7,1.6-1,2.6c-0.5,1.3-1.3,2.5-2.8,4c-1.3,1.2-2.3,1.6-3,1.6
	c-0.5,0-1.3,0-2.1,0c-1,0.3-2,0.7-2.8,1.6c-1,0.8-2.1,1.3-3,1.5c-1.2,0-2.1-0.2-3.6-1.2c-1.5-0.7-2.5-1.3-3.1-2.3
	c-0.3-0.7-0.8-1.5-1.3-2.5c-0.3-0.7-1-1-1.8-1.3c-0.7,0-1,0-1.2,0c0,0.2-0.2,0.5-0.2,1c-0.2,0.7-0.7,1-1.3,1.3
	c-0.7,0.2-1.8,0.7-2.8,1.5c-1.2,1-1.8,1.8-2,2.8c-0.3,0.8-0.7,1.6-0.8,2.1c-0.5,0.8-1,1.3-1.5,2.1c-0.5,0.8-0.5,1.3,0,2.3
	c0.7,0.7,1.3,1.3,2,1.3l1.6,0.5c0.8,1,0.8,1.8,0,2.3c-0.7,0.5-0.7,1,0,1.5c0.8,0.5,0.8,1,0,1.5s-1.3,0.8-2,1.3
	c-0.2,0.5-0.2,1.3,0,2.1c0,1.3,0.5,2.1,1.2,3c0.5,0.8,0.7,1.5,0.3,2.1c-0.2,0.7-0.5,1.2-0.5,1.2c0,0.2,0.3,0.5,0.8,1.3
	s0.5,1.5,0.2,2.1c-0.5,0.7-0.5,1.3,0,1.8s0.5,1.2,0,1.8c-0.5,0.5-1,1.3-1.3,2.1c-0.5,0.8-0.5,2-0.5,3.3c0.3,1.5,0.5,2.8,1,4
	c0.5,1,1.3,1.8,2,2.3c0.7,0.5,0.8,1.2,0.5,1.3c-0.2,0.5-0.2,1.5,0,2.5c0.5,1.2,0.3,2.1-0.5,2.6c-0.5,0.5-1,0.8-1.2,0.8
	c0.2,0,0.3,0.3,0.5,0.7c0.2,0.3,0.3,1,0.3,1.6c0,0.5,0.2,0.7,0.5,0.5c0.3,0,0.8-0.2,1.5-0.2c0.5,0.2,1.3-0.3,2-1
	c0.8-0.5,1.5-0.8,2-1c0.5,0,1.2-0.5,2-1c0.7-0.8,1.5-1.3,2.1-1.8c1-0.5,1.6-1.2,2.8-1.8c1-0.5,2.1-1.3,3.1-2c1.3-0.8,2.1-1.2,3-1.3
	c1-0.2,1.6-0.2,2.5-0.3c1,0.2,1.8,0.3,3,0.5c1.2,0.5,1.3,1.2,1.3,2.1c-0.2,0.8,0,1.5,0.5,2.1c0.5,0.7,1.2,1.3,2,1.5
	c1,0.5,1.8,0.5,2.5,0c0.7-0.3,1.3-0.5,2.1-0.7c0.7-0.2,1.5,0,2.6,0.5c1.2,0.5,2.1,1,3,1.6c0.8,0.7,2.1,1.3,3.5,2.3
	c1.3,0.8,2.5,1.5,3,1.8c0.7,0.3,1.6,0.5,2.3,0.5c0.7,0.2,1.3,0.2,2.1,0.2c0.5,0.2,1.5,0.8,3,2c1.2,1.3,2,2.5,2.1,3.6
	c0.3,1,1,1.5,1.6,2c0.5,0.3,1.2,0.3,1.5,0c0.3-0.3,1-0.5,1.5-0.5c0.7-0.2,1.5,0,2.5,0.5c1.2,0.5,2.1,0.8,3,1.2c1,0.5,2,1,3.3,1.3
	c1.2,0.5,2,1.3,2.5,2.1c0.7,0.7,0.7,1.6,0.5,2.6c-0.5,1-1,1.6-1.6,2.1c-0.7,0.5-1.2,0.8-1.3,1.3c-0.2,0.5-0.5,0.7-1.2,1.2
	c-0.5,0.3-0.7,0.8-0.7,1.6c0,0.7-0.5,1.2-1.3,1.3c-0.8,0.3-1.5,1.3-2.1,2.8c-0.5,1.5-0.5,2.8-0.3,3.5s0.5,1.5,0.8,2.1
	c0.5,0.7,0.8,1.3,1,1.6c0.3,0.3,0.7,0.8,1.2,1.3c0.5,0.7,0.7,1.3,0.5,1.8l-0.3,0.7l5.9,4.4c0.3,0,0.5-0.3,1-1.3c0.7-1,1.3-1.6,2.1-2
	c0.7-0.5,1.5-1.2,2.3-2c0.5-0.8,0.8-1.3,0.8-2c-0.2-0.5-0.3-1-0.5-1.5c0.2-0.7,0.3-1.3,0.3-2.1c0-0.5,0.2-1.2,0.2-1.8
	c0.3-0.7,0.5-1.3,0.7-2.1c0.3-0.8,0.5-1.5,0.5-2.1c0-0.5,0.2-1,0.2-1.3c0.2-0.5,0.3-1.2,0.5-2c0.2-1,0.5-1.6,0.7-2.1
	c0.2-0.3,0.5-0.8,0.5-1.3c0.2-0.5,0.5-1.3,0.7-2c0.3-0.7,0.5-1.5,1-2.5c0.2-0.7,0.3-1.3,0-2c-0.2-0.5-0.5-2.1-0.5-4.6
	c-0.2-2.3-0.2-4.4-0.3-6.1c-0.2-1.6-0.2-3,0.2-4c0-1,0.3-1.8,0.5-2.3c0.2-0.7,0.3-1.2,0.3-1.6c0-0.5-0.2-0.8-0.3-0.8
	c-0.3-0.3-0.5-0.5-0.5-0.8c0-0.5,0-0.5,0.3-0.7c0.5-0.2,0.5-0.5,0.5-1c-0.2-0.5-0.3-0.8-0.5-1.2c0-0.3,0-0.5-0.3-1.2
	c0-0.3,0-0.5,0.3-0.5c0.5-0.2,0.7-0.2,1-0.5c0.2-0.5,0.2-0.8,0-1.5c-0.3-0.7-0.5-1-0.5-0.8c-0.2,0.2-0.3,0-0.5-0.5
	c0.2-0.7,0.5-1,0.5-1.3c0.5-0.5,0.8-0.5,1.2-1c0.2-0.5,0.5-0.7,0.7-0.8c0.3-0.5,0.5-0.7,0.3-1.2c-0.2-0.3,0.2-0.7,0.7-1
	c0.5-0.2,0.5-0.5,0.8-0.8c0-0.5,0-0.7-0.3-1.2c-0.3-0.2-0.5-0.5-0.7-0.5c-0.3-0.2-0.5-0.5-0.7-0.8c-0.2-0.5-0.2-0.8,0.2-1
	c0.2,0,0.5,0.2,0.5,0.5c0.2,0.5,0.3,0.5,0.7,0.5c0.3-0.3,0.7-0.5,0.7-1c0.3-0.5,0.5-0.8,0.7-0.7c0.3,0,0.5,0.2,0.7,0.3
	c0.3,0.5,0.5,0.8,0.5,1.3s0,1.3,0,2s0.2,1.2,0.7,1.3c0.7-0.2,1.5-0.7,3-1.8c1.3-1.3,2.1-2.1,2.8-3c0.7-0.5,1-1.2,1.2-1.3
	c0.2-0.5,0.5-1,1.3-1.8c0.7-0.8,1.3-1.5,1.8-2.1c0.5-0.5,1-1.3,1.3-2.3c0.5-1.3,0.8-2.1,1.3-3c0.5-0.7,1-1.3,1.3-2
	c0.3-0.5,0.3-0.7,0-0.8c-0.3,0-0.3,0-0.5,0s-0.3,0-0.5-0.5c-0.7-0.2-1.3-0.2-2.1-0.3c-0.7-0.2-1.5-0.5-2.1-0.8c-0.5-0.5-1-1-1.2-1.3
	c-0.2-0.5-0.3-1.3-0.5-2.1c-0.5-0.8-1-1.8-1.3-2.6c-0.7-1.2-0.8-2-0.5-2.6c0.5-0.5,0.8-0.7,1.3-0.5c0.5,0,1.2,0,1.5,0s0.8-0.5,1.2-1
	c0.5-0.8,0.5-1.6,0.7-2.1s0.3-1.3,0.5-2.6c0-1.3,0-2.1-0.5-2.8c-0.3-0.8-0.8-1.5-1.3-2.1c-0.5-1-0.7-1.8-0.7-2.6c0-0.7,0-1.3,0-1.3
	l-0.3-0.7c-0.3-0.3-0.7-0.5-1.2-0.7c-0.7,0-1-0.5-1-1.5c-0.2-1-0.2-1.3-0.3-1.5c0,0-0.2-0.5-0.3-1.3c-0.3-0.7-0.5-1.2-1-1.2
	c-0.5-0.2-1-0.5-1.3-1.3c-0.2-0.7-0.5-0.8-1.2-0.2c-0.5,0.5-1,0.5-1.3,0c-0.3-0.8-1-1.2-1.6-1.3c-0.7-0.2-1.3-0.5-1.8-1
	c-0.3-0.5-0.7-0.5-1.3-0.5C567.4,190.9,567.1,190.6,566.6,190.1C567.2,190.4,566.9,190.2,566.6,190.1z"/>
<g id="sp">
	<path fill="#CDCCCC" stroke="#FFFFFF" stroke-width="1.1" stroke-linejoin="round" d="M466.6,331.3c0.2-0.5,0.2-0.8,0.3-1
		c0,0,0-0.3,0-0.7c-0.2-0.5-0.5-1.2-0.8-1.3c-0.5-0.5-0.5-0.8-0.8-1V327c0-0.2-0.5-0.2-1.3-0.2s-1.5,0-2-0.5c-0.5-0.3-1-0.3-1.6,0.2
		s-1.3,0.7-1.5,1c-0.5,0.2-1,0.2-1.6,0c-0.8,0-1.5-0.2-2.1-0.2c-0.5,0.2-1.2,0.2-1.6,0.3c-0.5,0-1.3,0.2-2,0.3
		c-0.8,0.2-1.3,0.3-1.8,0.3c-0.5,0.2-0.7,0.7-1,1.3c0,0.7-0.3,0.8-0.7,0.5c-0.5-0.3-0.7-0.7-1-0.8c-0.5,0-0.8,0-1.3,0.2
		s-0.8,0-1.3-0.2c-0.5-0.5-0.5-0.8-0.3-1.3c0-0.5,0-1,0-1.5c0-0.2-0.5-0.5-1.3-0.5c-0.7-0.2-1.3-0.3-1.8-0.5c-0.5-0.2-1.2-0.2-2-0.2
		c-0.8,0-1.3,0-2,0c-0.5,0-1.2-0.2-1.8-0.3c-0.7-0.3-1.3-0.5-2.1-0.5c-0.7-0.3-1.3-0.3-2.1-0.5c-0.7-0.2-1.3,0-1.8,0.3
		c-0.5,0.5-1.3,0.8-2,1c-0.7,0.3-1.3,0.5-2.1,1.2c-0.5,0.2-1,0.3-1,0.3c0,0.2-0.2,0.7-0.2,1.6c-0.2,1-0.5,1.5-0.8,1.8
		c-0.5,0.2-1.3,0.2-2,0.5c-0.7,0-1.3,0.3-2,0.8c-0.5,0.5-1,1.3-1.6,2c-0.5,0.7-0.8,1.5-1.2,2.3c-0.2,0.8-0.3,1.5-0.7,2.1
		c-0.3,0.5-0.7,1.2-1,2c-0.5,0.7-0.7,1.3-0.8,2.3c0,0.7-0.5,1.3-0.7,1.8c-0.5,0.5-1,0.8-1.3,1c-0.3,0.3-0.5,0.7-0.5,1.3
		c0,0.5-0.3,1.3-0.7,1.8c-0.5,0.7-1,1.3-1.5,2.1c-0.5,0.8-1.3,1.5-1.8,2.3c-0.5,1.2-1.2,1.6-1.5,1.8c-0.5,0.3-1,0.7-1.6,1
		c-0.8,0.5-1.6,0.8-2.5,1.5c-0.7,0.5-1,1-1,1c0,0.2,0.5,0.2,1.5,0.3c1.2,0.2,2.1,0.2,3.6,0.2c1.2,0,2,0.2,2.5,0.3
		c0.5,0.2,1.2,0,1.8-0.3c0.7-0.3,1.5-0.3,2.5,0c1,0.3,2,0.7,3,1c1,0.5,1.8,0.5,2.6,0c0.8-0.2,1.5,0,2.1,0.3c0.5,0.5,1.3,0.8,2.5,1.2
		c1,0.3,1.6,0.7,2.3,1.3c0.7,0.5,2,0.7,3.8,0.7s3.1,0,4.1,0s1.8,0.2,2.5,1.2c1.2,0.7,1.8,1.3,2.1,1.6c0.5,0.7,0.7,1.3,0.7,2.1
		c0.2,0.8,0.2,1.5,0.3,2.5c0,0.8,0.2,1.5,0.5,2.1c0,0.7,0,1.2,0.2,1.3c-0.2,0.5,0.3,1.2,0.8,2.1c0.5,1,1.2,1.6,1.3,2.3
		c0.5,0.7,0.5,1.3,0.7,1.6c0.3,0.5,0.2,1.3-0.2,2.1c0,0.7,0,1.3,0.5,1.6c0.7,0.5,1.5,0.7,2.5,0.7c1.2,0.2,2,0.2,3,0.5
		c0.7,0,1.2,0,1.5,0.3c0.5,0.3,0.7,0.8,0.7,1.8s0.2,1.5,0.5,1.8c0.3,0.5,0.8,0.5,1.5,0.5c0.7-0.2,1.3,0.3,1.5,1
		c0.2,0.8,0.5,1.5,1,2.1c0.5,0.5,0.5,0.7,0.5,0.7c0.2,0,0.5-0.2,0.7-0.7c0.5-0.3,0.5-0.8,0.5-1.2c0-0.5-0.2-0.7-0.5-0.8
		c-0.3-0.2-0.2-0.3,0.5-0.5c0.5-0.5,1.3-1,2.1-1.6c0.8-0.7,1.5-1.2,2.1-1.5c0.5-0.3,1-0.5,1.5-0.7c0.5-0.3,1.3-0.7,2-1
		c0.7-0.7,1.5-1.3,2.5-1.8c0.7-0.7,1.3-1.3,2-1.6c0.5-0.5,1.3-0.8,2.3-1.3s1.8-0.8,2.5-1.2c0.7-0.3,1.2-0.3,1.6-0.5
		c0.3,0,0.7-0.2,1-0.5c0.5-0.5,1.2-0.8,1.5-1.3c0.5-0.3,1-0.5,1.3-0.8c0.5,0,1,0,1.5-0.3c0.5,0,1.2,0.3,1.8,0.3
		c0.5,0,1.3,0.3,1.8,0.5c0.3,0.2,0.8,0.2,1,0c0-0.3,0.3-0.8,0.3-1.3c0.2-0.5,0.5-1.2,1.2-1.3c0.8-0.3,1.5-0.7,2.3-1.2
		c0.7-0.5,1.3-0.7,1.6-1c0.5-0.5,0.7-0.5,1.2-0.5c0.3-0.2,0.8-0.3,1.3-0.3l0.7-0.3c0,0-0.2-0.5-0.5-1.5c-0.5-1-0.5-1.6-0.3-2.3
		c0.3-0.7,0.7-1.2,1.3-1.8c0.7-0.5,1.3-0.8,2.3-1c0.8,0,1.8-0.3,2.5-0.5c0.7-0.3,1.3-0.8,1.3-1.3c-0.3-0.7-1-1-2.3-1
		c0.2,0-0.2,0-0.7,0s-0.5,0-0.5,0c-1.3-0.5-2-1-2.5-1.8c-0.5-0.7-0.5-1.2-0.7-1.3c-0.2,0-0.8,0.3-2,0.7c-1.5,0.5-2.8,1-4,1.3
		c-1.2,0.3-2.1,0.3-2.6,0.2c-0.5-0.3-1-0.3-1.3,0.2s-0.5,1-0.5,1.3c-0.2,0.7-0.8,1-1.8,1.3c-1.3,0-2.3,0-3.3,0c-1.2,0-1.8-0.5-2.1-1
		c-0.5-0.5-0.7-1.2-0.7-1.6c-0.2-0.5-0.5-0.8-0.7-1.5c-0.5-0.8-1.2-1.5-1.6-2.1c-0.5-0.7-0.5-1.3-0.3-1.6c0.3-0.7,0.5-1.3,0.5-2.1
		c-0.2-0.8,0-1.8,0.2-3.1c0.3-1.2,0.7-2.1,1-3c0.3-0.7,0-1.3-0.5-1.6c-0.5-0.5-1.2-0.7-1.6-0.7s-1,0-1.6,0c-0.7,0-1.3-0.5-2-1.5
		c-0.5-1.3-0.7-2.1-0.8-2.6c0-0.7,0-1.3-0.2-1.8c0-0.5,0.3-1.3,0.5-2.1c0.3-0.8,0-1.8-0.5-2.5C467,333,466.6,332.1,466.6,331.3z"/>
	<text transform="matrix(1 0 0 1 441 359.89)" font-family="'Lato-Bold'" font-size="15.96">SP</text>
</g>
</svg>
